WixMadeforText-ExtraBoldItalic.ufo
<glyph name="numbersign" format="2">
	<unicode hex="0023"/>
	<advance width="626"/>
	<outline>
		<contour>
			<point x="240" y="0" type="line"/>
			<point x="384" y="0" type="line"/>
			<point x="674" y="715" type="line"/>
			<point x="529" y="715" type="line"/>
		</contour>
		<contour>
			<point x="-19" y="145" type="line"/>
			<point x="513" y="145" type="line"/>
			<point x="567" y="276" type="line"/>
			<point x="35" y="276" type="line"/>
		</contour>
		<contour>
			<point x="-4" y="0" type="line"/>
			<point x="140" y="0" type="line"/>
			<point x="429" y="715" type="line"/>
			<point x="285" y="715" type="line"/>
		</contour>
		<contour>
			<point x="102" y="439" type="line"/>
			<point x="634" y="439" type="line"/>
			<point x="689" y="570" type="line"/>
			<point x="156" y="570" type="line"/>
		</contour>
	</outline>
</glyph>
<glyph name="dollar" format="2">
	<unicode hex="0024"/>
	<advance width="652"/>
	<outline>
		<contour>
			<point x="207" y="-116" type="line"/>
			<point x="275" y="-116" type="line"/>
			<point x="376" y="359" type="line"/>
			<point x="308" y="359" type="line"/>
		</contour>
		<contour>
			<point x="317" y="376" type="line"/>
			<point x="385" y="376" type="line"/>
			<point x="482" y="831" type="line"/>
			<point x="414" y="831" type="line"/>
		</contour>
		<contour>
			<point x="7" y="129" type="line"/>
			<point x="58" y="46"/>
			<point x="186" y="-6"/>
			<point x="305" y="-6" type="curve" smooth="yes"/>
			<point x="464" y="-6"/>
			<point x="595" y="88"/>
			<point x="595" y="235" type="curve" smooth="yes"/>
			<point x="595" y="340"/>
			<point x="531" y="401"/>
			<point x="384" y="437" type="curve" smooth="yes"/>
			<point x="286" y="461"/>
			<point x="258" y="474"/>
			<point x="258" y="512" type="curve" smooth="yes"/>
			<point x="258" y="561"/>
			<point x="302" y="589"/>
			<point x="370" y="589" type="curve" smooth="yes"/>
			<point x="458" y="589"/>
			<point x="515" y="549"/>
			<point x="559" y="494" type="curve"/>
			<point x="663" y="587" type="line"/>
			<point x="616" y="664"/>
			<point x="512" y="721"/>
			<point x="379" y="721" type="curve" smooth="yes"/>
			<point x="225" y="721"/>
			<point x="98" y="622"/>
			<point x="98" y="484" type="curve" smooth="yes"/>
			<point x="98" y="381"/>
			<point x="164" y="325"/>
			<point x="311" y="290" type="curve" smooth="yes"/>
			<point x="408" y="267"/>
			<point x="433" y="250"/>
			<point x="433" y="207" type="curve" smooth="yes"/>
			<point x="433" y="157"/>
			<point x="393" y="127"/>
			<point x="316" y="127" type="curve" smooth="yes"/>
			<point x="227" y="127"/>
			<point x="152" y="168"/>
			<point x="112" y="226" type="curve"/>
		</contour>
	</outline>
	<guideline y="-6"/>
	<guideline y="125"/>
	<guideline y="589"/>
</glyph>
<glyph name="ampersand" format="2">
	<unicode hex="0026"/>
	<advance width="686"/>
	<outline>
		<contour>
			<point x="453" y="222" type="line" smooth="yes"/>
			<point x="390" y="145"/>
			<point x="343" y="113"/>
			<point x="280" y="113" type="curve" smooth="yes"/>
			<point x="222" y="113"/>
			<point x="187" y="148"/>
			<point x="187" y="197" type="curve" smooth="yes"/>
			<point x="187" y="258"/>
			<point x="241" y="311"/>
			<point x="327" y="335" type="curve"/>
			<point x="319" y="431" type="line"/>
			<point x="115" y="377"/>
			<point x="19" y="284"/>
			<point x="19" y="172" type="curve" smooth="yes"/>
			<point x="19" y="62"/>
			<point x="119" y="-16"/>
			<point x="254" y="-16" type="curve" smooth="yes"/>
			<point x="366" y="-16"/>
			<point x="458" y="40"/>
			<point x="562" y="161" type="curve" smooth="yes"/>
			<point x="672" y="289" type="line"/>
			<point x="572" y="369" type="line"/>
		</contour>
		<contour>
			<point x="550" y="-16" type="line"/>
			<point x="659" y="82" type="line"/>
			<point x="388" y="381" type="line"/>
			<point x="370" y="401" type="line"/>
			<point x="317" y="454"/>
			<point x="302" y="488"/>
			<point x="302" y="523" type="curve" smooth="yes"/>
			<point x="302" y="574"/>
			<point x="337" y="612"/>
			<point x="379" y="612" type="curve" smooth="yes"/>
			<point x="415" y="612"/>
			<point x="440" y="585"/>
			<point x="440" y="550" type="curve" smooth="yes"/>
			<point x="440" y="503"/>
			<point x="395" y="458"/>
			<point x="330" y="439" type="curve"/>
			<point x="330" y="343" type="line"/>
			<point x="484" y="382"/>
			<point x="579" y="469"/>
			<point x="579" y="568" type="curve" smooth="yes"/>
			<point x="579" y="664"/>
			<point x="492" y="731"/>
			<point x="380" y="731" type="curve" smooth="yes"/>
			<point x="250" y="731"/>
			<point x="155" y="640"/>
			<point x="155" y="524" type="curve" smooth="yes"/>
			<point x="155" y="458"/>
			<point x="186" y="404"/>
			<point x="248" y="341" type="curve"/>
			<point x="260" y="322" type="line"/>
		</contour>
	</outline>
	<guideline y="612"/>
	<guideline x="613" y="0" angle="102"/>
</glyph>
<glyph name="quotesingle" format="2">
	<unicode hex="0027"/>
	<advance width="270"/>
	<outline>
		<contour>
			<point x="199" y="425" type="line"/>
			<point x="247" y="517"/>
			<point x="299" y="657"/>
			<point x="299" y="695" type="curve" smooth="yes"/>
			<point x="299" y="729"/>
			<point x="274" y="753"/>
			<point x="239" y="753" type="curve" smooth="yes"/>
			<point x="195" y="753"/>
			<point x="163" y="724"/>
			<point x="153" y="676" type="curve" smooth="yes"/>
			<point x="144" y="637"/>
			<point x="141" y="525"/>
			<point x="145" y="425" type="curve"/>
		</contour>
	</outline>
</glyph>
<glyph name="parenright" format="2">
	<unicode hex="0029"/>
	<advance width="369"/>
	<outline>
		<contour>
			<point x="116" y="-129" type="line"/>
			<point x="262" y="24"/>
			<point x="352" y="224"/>
			<point x="352" y="450" type="curve" smooth="yes"/>
			<point x="352" y="529"/>
			<point x="333" y="647"/>
			<point x="297" y="731" type="curve"/>
			<point x="132" y="731" type="line"/>
			<point x="170" y="645"/>
			<point x="187" y="535"/>
			<point x="187" y="456" type="curve" smooth="yes"/>
			<point x="187" y="231"/>
			<point x="93" y="20"/>
			<point x="-51" y="-129" type="curve"/>
		</contour>
	</outline>
</glyph>
<glyph name="asterisk" format="2">
	<unicode hex="002A"/>
	<advance width="435"/>
	<outline>
		<contour>
			<point x="226" y="494" type="curve"/>
			<point x="185" y="470"/>
			<point x="138" y="435"/>
			<point x="115" y="412" type="curve" smooth="yes"/>
			<point x="100" y="397"/>
			<point x="92" y="378"/>
			<point x="92" y="359" type="curve" smooth="yes"/>
			<point x="92" y="335"/>
			<point x="111" y="316"/>
			<point x="137" y="316" type="curve" smooth="yes"/>
			<point x="158" y="316"/>
			<point x="177" y="325"/>
			<point x="190" y="341" type="curve" smooth="yes"/>
			<point x="208" y="363"/>
			<point x="238" y="415"/>
			<point x="261" y="462" type="curve"/>
			<point x="265" y="416"/>
			<point x="276" y="362"/>
			<point x="286" y="341" type="curve" smooth="yes"/>
			<point x="293" y="325"/>
			<point x="305" y="316"/>
			<point x="323" y="316" type="curve" smooth="yes"/>
			<point x="359" y="316"/>
			<point x="390" y="348"/>
			<point x="390" y="383" type="curve" smooth="yes"/>
			<point x="390" y="398"/>
			<point x="386" y="408"/>
			<point x="377" y="422" type="curve" smooth="yes"/>
			<point x="363" y="441"/>
			<point x="337" y="470"/>
			<point x="310" y="494" type="curve"/>
			<point x="361" y="494"/>
			<point x="407" y="498"/>
			<point x="429" y="505" type="curve" smooth="yes"/>
			<point x="460" y="513"/>
			<point x="483" y="541"/>
			<point x="483" y="572" type="curve" smooth="yes"/>
			<point x="483" y="598"/>
			<point x="467" y="615"/>
			<point x="442" y="615" type="curve" smooth="yes"/>
			<point x="431" y="615"/>
			<point x="417" y="613"/>
			<point x="401" y="605" type="curve" smooth="yes"/>
			<point x="380" y="595"/>
			<point x="348" y="575"/>
			<point x="305" y="545" type="curve"/>
			<point x="341" y="613"/>
			<point x="362" y="666"/>
			<point x="362" y="691" type="curve" smooth="yes"/>
			<point x="362" y="716"/>
			<point x="346" y="732"/>
			<point x="319" y="732" type="curve" smooth="yes"/>
			<point x="286" y="732"/>
			<point x="260" y="709"/>
			<point x="252" y="674" type="curve" smooth="yes"/>
			<point x="250" y="662"/>
			<point x="248" y="641"/>
			<point x="248" y="619" type="curve" smooth="yes"/>
			<point x="248" y="595"/>
			<point x="250" y="568"/>
			<point x="253" y="545" type="curve"/>
			<point x="230" y="569"/>
			<point x="206" y="589"/>
			<point x="187" y="602" type="curve" smooth="yes"/>
			<point x="174" y="610"/>
			<point x="165" y="615"/>
			<point x="146" y="615" type="curve" smooth="yes"/>
			<point x="109" y="615"/>
			<point x="81" y="576"/>
			<point x="81" y="543" type="curve" smooth="yes"/>
			<point x="81" y="525"/>
			<point x="92" y="511"/>
			<point x="111" y="505" type="curve" smooth="yes"/>
			<point x="131" y="498"/>
			<point x="175" y="494"/>
		</contour>
	</outline>
</glyph>
<glyph name="plus" format="2">
	<unicode hex="002B"/>
	<advance width="632"/>
	<outline>
		<contour>
			<point x="223" y="137" type="line"/>
			<point x="352" y="137" type="line"/>
			<point x="383" y="292" type="line"/>
			<point x="537" y="292" type="line"/>
			<point x="565" y="424" type="line"/>
			<point x="411" y="424" type="line"/>
			<point x="443" y="579" type="line"/>
			<point x="314" y="579" type="line"/>
			<point x="283" y="424" type="line"/>
			<point x="129" y="424" type="line"/>
			<point x="101" y="292" type="line"/>
			<point x="255" y="292" type="line"/>
		</contour>
	</outline>
</glyph>
<glyph name="hyphen" format="2">
	<unicode hex="002D"/>
	<advance width="322"/>
	<outline>
		<contour>
			<point x="17" y="213" type="line"/>
			<point x="288" y="213" type="line"/>
			<point x="317" y="351" type="line"/>
			<point x="46" y="351" type="line"/>
		</contour>
	</outline>
</glyph>
<glyph name="zero" format="2">
	<unicode hex="0030"/>
	<advance width="619"/>
	<outline>
		<contour>
			<point x="274" y="-16" type="curve" smooth="yes"/>
			<point x="473" y="-16"/>
			<point x="624" y="197"/>
			<point x="624" y="476" type="curve" smooth="yes"/>
			<point x="624" y="636"/>
			<point x="537" y="731"/>
			<point x="389" y="731" type="curve" smooth="yes"/>
			<point x="190" y="731"/>
			<point x="39" y="518"/>
			<point x="39" y="239" type="curve" smooth="yes"/>
			<point x="39" y="79"/>
			<point x="126" y="-16"/>
		</contour>
		<contour>
			<point x="286" y="120" type="curve" smooth="yes"/>
			<point x="235" y="120"/>
			<point x="207" y="162"/>
			<point x="207" y="238" type="curve" smooth="yes"/>
			<point x="207" y="425"/>
			<point x="288" y="595"/>
			<point x="377" y="595" type="curve" smooth="yes"/>
			<point x="428" y="595"/>
			<point x="456" y="553"/>
			<point x="456" y="477" type="curve" smooth="yes"/>
			<point x="456" y="290"/>
			<point x="375" y="120"/>
		</contour>
	</outline>
	<guideline y="-16"/>
	<guideline y="120"/>
	<guideline y="595"/>
	<guideline x="-24" y="0" angle="102"/>
	<guideline x="376" y="0" angle="102"/>
	<guideline x="542" y="0" angle="102"/>
</glyph>
<glyph name="three" format="2">
	<unicode hex="0033"/>
	<advance width="591"/>
	<outline>
		<contour>
			<point x="-16" y="119" type="line"/>
			<point x="48" y="21"/>
			<point x="150" y="-16"/>
			<point x="248" y="-16" type="curve" smooth="yes"/>
			<point x="411" y="-16"/>
			<point x="548" y="84"/>
			<point x="548" y="227" type="curve" smooth="yes"/>
			<point x="548" y="331"/>
			<point x="467" y="398"/>
			<point x="312" y="398" type="curve" smooth="yes"/>
			<point x="285" y="398" type="line"/>
			<point x="277" y="358" type="line"/>
			<point x="340" y="358" type="line" smooth="yes"/>
			<point x="461" y="358"/>
			<point x="581" y="420"/>
			<point x="581" y="549" type="curve" smooth="yes"/>
			<point x="581" y="675"/>
			<point x="462" y="731"/>
			<point x="352" y="731" type="curve" smooth="yes"/>
			<point x="263" y="731"/>
			<point x="172" y="700"/>
			<point x="101" y="637" type="curve"/>
			<point x="180" y="517" type="line"/>
			<point x="234" y="569"/>
			<point x="278" y="590"/>
			<point x="326" y="590" type="curve" smooth="yes"/>
			<point x="374" y="590"/>
			<point x="409" y="564"/>
			<point x="409" y="519" type="curve" smooth="yes"/>
			<point x="409" y="460"/>
			<point x="353" y="436"/>
			<point x="303" y="436" type="curve" smooth="yes"/>
			<point x="250" y="436" type="line"/>
			<point x="222" y="299" type="line"/>
			<point x="279" y="299" type="line" smooth="yes"/>
			<point x="344" y="299"/>
			<point x="376" y="267"/>
			<point x="376" y="224" type="curve" smooth="yes"/>
			<point x="376" y="156"/>
			<point x="319" y="121"/>
			<point x="259" y="121" type="curve" smooth="yes"/>
			<point x="191" y="121"/>
			<point x="135" y="169"/>
			<point x="109" y="220" type="curve"/>
		</contour>
	</outline>
	<guideline y="121"/>
	<guideline y="590"/>
	<guideline y="731"/>
	<guideline x="-40" y="0" angle="102"/>
	<guideline x="508" y="0" angle="102"/>
</glyph>
<glyph name="four" format="2">
	<unicode hex="0034"/>
	<advance width="664"/>
	<outline>
		<contour>
			<point x="12" y="123" type="line"/>
			<point x="591" y="123" type="line"/>
			<point x="619" y="255" type="line"/>
			<point x="141" y="255" type="line"/>
			<point x="141" y="201" type="line"/>
			<point x="493" y="573" type="line"/>
			<point x="441" y="573" type="line"/>
			<point x="320" y="0" type="line"/>
			<point x="483" y="0" type="line"/>
			<point x="634" y="715" type="line"/>
			<point x="471" y="715" type="line"/>
			<point x="40" y="255" type="line"/>
		</contour>
	</outline>
	<guideline x="-14" y="0" angle="102"/>
	<guideline x="565" y="0" angle="102"/>
</glyph>
<glyph name="seven" format="2">
	<unicode hex="0037"/>
	<advance width="602"/>
	<outline>
		<contour>
			<point x="15" y="0" type="line"/>
			<point x="207" y="0" type="line"/>
			<point x="625" y="581" type="line"/>
			<point x="653" y="715" type="line"/>
			<point x="156" y="715" type="line"/>
			<point x="128" y="581" type="line"/>
			<point x="498" y="581" type="line"/>
			<point x="501" y="663" type="line"/>
		</contour>
	</outline>
	<guideline x="-3" y="0" angle="102"/>
	<guideline x="484" y="0" angle="102"/>
</glyph>
<glyph name="eight" format="2">
	<unicode hex="0038"/>
	<advance width="613"/>
	<outline>
		<contour>
			<point x="386" y="731" type="curve" smooth="yes"/>
			<point x="233" y="731"/>
			<point x="114" y="637"/>
			<point x="114" y="515" type="curve" smooth="yes"/>
			<point x="114" y="441"/>
			<point x="168" y="382"/>
			<point x="256" y="360" type="curve"/>
			<point x="256" y="403" type="line"/>
			<point x="122" y="380"/>
			<point x="24" y="289"/>
			<point x="24" y="187" type="curve" smooth="yes"/>
			<point x="24" y="64"/>
			<point x="122" y="-16"/>
			<point x="272" y="-16" type="curve" smooth="yes"/>
			<point x="439" y="-16"/>
			<point x="572" y="89"/>
			<point x="572" y="221" type="curve" smooth="yes"/>
			<point x="572" y="308"/>
			<point x="507" y="379"/>
			<point x="407" y="402" type="curve"/>
			<point x="409" y="365" type="line"/>
			<point x="525" y="381"/>
			<point x="609" y="464"/>
			<point x="609" y="561" type="curve" smooth="yes"/>
			<point x="609" y="661"/>
			<point x="517" y="731"/>
		</contour>
		<contour>
			<point x="310" y="303" type="curve" smooth="yes"/>
			<point x="369" y="303"/>
			<point x="404" y="274"/>
			<point x="404" y="223" type="curve" smooth="yes"/>
			<point x="404" y="163"/>
			<point x="354" y="120"/>
			<point x="286" y="120" type="curve" smooth="yes"/>
			<point x="227" y="120"/>
			<point x="192" y="149"/>
			<point x="192" y="200" type="curve" smooth="yes"/>
			<point x="192" y="260"/>
			<point x="242" y="303"/>
		</contour>
		<contour>
			<point x="374" y="599" type="curve" smooth="yes"/>
			<point x="420" y="599"/>
			<point x="448" y="572"/>
			<point x="448" y="530" type="curve" smooth="yes"/>
			<point x="448" y="477"/>
			<point x="405" y="436"/>
			<point x="349" y="436" type="curve" smooth="yes"/>
			<point x="303" y="436"/>
			<point x="275" y="463"/>
			<point x="275" y="505" type="curve" smooth="yes"/>
			<point x="275" y="558"/>
			<point x="318" y="599"/>
		</contour>
	</outline>
	<guideline y="120"/>
	<guideline y="303"/>
	<guideline y="388"/>
	<guideline y="436"/>
	<guideline y="599"/>
	<guideline y="731"/>
	<guideline x="-16" y="0" angle="102"/>
	<guideline x="537" y="0" angle="102"/>
</glyph>
<glyph name="nine" format="2">
	<unicode hex="0039"/>
	<advance width="627"/>
	<outline>
		<contour>
			<point x="395" y="731" type="curve" smooth="yes"/>
			<point x="220" y="731"/>
			<point x="85" y="599"/>
			<point x="85" y="428" type="curve" smooth="yes"/>
			<point x="85" y="315"/>
			<point x="170" y="231"/>
			<point x="285" y="231" type="curve" smooth="yes"/>
			<point x="335" y="231"/>
			<point x="374" y="247"/>
			<point x="405" y="281" type="curve"/>
			<point x="397" y="286" type="line"/>
			<point x="335" y="206"/>
			<point x="243" y="131"/>
			<point x="48" y="0" type="curve"/>
			<point x="289" y="0" type="line"/>
			<point x="531" y="173"/>
			<point x="639" y="328"/>
			<point x="639" y="502" type="curve" smooth="yes"/>
			<point x="639" y="634"/>
			<point x="535" y="731"/>
		</contour>
		<contour>
			<point x="377" y="595" type="curve" smooth="yes"/>
			<point x="435" y="595"/>
			<point x="477" y="554"/>
			<point x="477" y="498" type="curve" smooth="yes"/>
			<point x="477" y="420"/>
			<point x="421" y="360"/>
			<point x="348" y="360" type="curve" smooth="yes"/>
			<point x="291" y="360"/>
			<point x="249" y="401"/>
			<point x="249" y="457" type="curve" smooth="yes"/>
			<point x="249" y="535"/>
			<point x="305" y="595"/>
		</contour>
	</outline>
	<guideline y="231"/>
	<guideline y="360"/>
	<guideline y="595"/>
	<guideline y="731"/>
	<guideline x="-33" y="0" angle="102"/>
	<guideline x="522" y="0" angle="102"/>
</glyph>
<glyph name="less" format="2">
	<unicode hex="003C"/>
	<advance width="632"/>
	<outline>
		<contour>
			<point x="110" y="271" type="line"/>
			<point x="486" y="100" type="line"/>
			<point x="517" y="247" type="line"/>
			<point x="261" y="355" type="line"/>
			<point x="563" y="463" type="line"/>
			<point x="593" y="617" type="line"/>
			<point x="146" y="446" type="line"/>
		</contour>
	</outline>
</glyph>
<glyph name="greater" format="2">
	<unicode hex="003E"/>
	<advance width="632"/>
	<outline>
		<contour>
			<point x="560" y="446" type="line"/>
			<point x="184" y="617" type="line"/>
			<point x="153" y="470" type="line"/>
			<point x="409" y="362" type="line"/>
			<point x="107" y="254" type="line"/>
			<point x="77" y="100" type="line"/>
			<point x="524" y="271" type="line"/>
		</contour>
	</outline>
</glyph>
<glyph name="question" format="2">
	<unicode hex="003F"/>
	<advance width="591"/>
	<outline>
		<contour>
			<point x="338" y="236" type="line"/>
			<point x="346" y="283"/>
			<point x="365" y="304"/>
			<point x="427" y="335" type="curve" smooth="yes"/>
			<point x="541" y="392"/>
			<point x="595" y="458"/>
			<point x="595" y="557" type="curve" smooth="yes"/>
			<point x="595" y="647"/>
			<point x="515" y="731"/>
			<point x="380" y="731" type="curve" smooth="yes"/>
			<point x="277" y="731"/>
			<point x="184" y="686"/>
			<point x="109" y="603" type="curve"/>
			<point x="200" y="496" type="line"/>
			<point x="249" y="556"/>
			<point x="305" y="589"/>
			<point x="358" y="589" type="curve" smooth="yes"/>
			<point x="407" y="589"/>
			<point x="431" y="563"/>
			<point x="431" y="530" type="curve" smooth="yes"/>
			<point x="431" y="494"/>
			<point x="408" y="464"/>
			<point x="360" y="441" type="curve" smooth="yes"/>
			<point x="260" y="391"/>
			<point x="228" y="342"/>
			<point x="220" y="236" type="curve"/>
		</contour>
		<contour>
			<point x="153" y="67" type="curve" smooth="yes"/>
			<point x="153" y="21"/>
			<point x="189" y="-13"/>
			<point x="236" y="-13" type="curve" smooth="yes"/>
			<point x="303" y="-13"/>
			<point x="351" y="33"/>
			<point x="351" y="99" type="curve" smooth="yes"/>
			<point x="351" y="146"/>
			<point x="316" y="183"/>
			<point x="270" y="183" type="curve" smooth="yes"/>
			<point x="203" y="183"/>
			<point x="153" y="134"/>
		</contour>
	</outline>
</glyph>
<glyph name="at" format="2">
	<unicode hex="0040"/>
	<advance width="991"/>
	<outline>
		<contour>
			<point x="630" y="7" type="line"/>
			<point x="569" y="-41"/>
			<point x="489" y="-65"/>
			<point x="420" y="-65" type="curve" smooth="yes"/>
			<point x="277" y="-65"/>
			<point x="180" y="38"/>
			<point x="180" y="204" type="curve" smooth="yes"/>
			<point x="180" y="420"/>
			<point x="344" y="602"/>
			<point x="563" y="602" type="curve" smooth="yes"/>
			<point x="711" y="602"/>
			<point x="802" y="519"/>
			<point x="802" y="367" type="curve" smooth="yes"/>
			<point x="802" y="265"/>
			<point x="761" y="171"/>
			<point x="713" y="171" type="curve" smooth="yes"/>
			<point x="687" y="171"/>
			<point x="679" y="190"/>
			<point x="679" y="212" type="curve" smooth="yes"/>
			<point x="679" y="223"/>
			<point x="681" y="235"/>
			<point x="683" y="245" type="curve" smooth="yes"/>
			<point x="730" y="465" type="line"/>
			<point x="608" y="465" type="line"/>
			<point x="586" y="364" type="line"/>
			<point x="608" y="357" type="line"/>
			<point x="608" y="430"/>
			<point x="557" y="478"/>
			<point x="480" y="478" type="curve" smooth="yes"/>
			<point x="359" y="478"/>
			<point x="259" y="362"/>
			<point x="259" y="222" type="curve" smooth="yes"/>
			<point x="259" y="115"/>
			<point x="323" y="45"/>
			<point x="423" y="45" type="curve" smooth="yes"/>
			<point x="496" y="45"/>
			<point x="563" y="99"/>
			<point x="596" y="194" type="curve"/>
			<point x="560" y="236" type="line"/>
			<point x="532" y="169"/>
			<point x="494" y="153"/>
			<point x="462" y="153" type="curve" smooth="yes"/>
			<point x="419" y="153"/>
			<point x="394" y="186"/>
			<point x="394" y="235" type="curve" smooth="yes"/>
			<point x="394" y="317"/>
			<point x="443" y="370"/>
			<point x="494" y="370" type="curve" smooth="yes"/>
			<point x="537" y="370"/>
			<point x="564" y="345"/>
			<point x="564" y="286" type="curve" smooth="yes"/>
			<point x="564" y="272"/>
			<point x="559" y="234"/>
			<point x="556" y="217" type="curve"/>
			<point x="556" y="210"/>
			<point x="556" y="190"/>
			<point x="556" y="179" type="curve" smooth="yes"/>
			<point x="556" y="102"/>
			<point x="609" y="45"/>
			<point x="699" y="45" type="curve" smooth="yes"/>
			<point x="840" y="45"/>
			<point x="942" y="183"/>
			<point x="942" y="362" type="curve" smooth="yes"/>
			<point x="942" y="585"/>
			<point x="783" y="731"/>
			<point x="560" y="731" type="curve" smooth="yes"/>
			<point x="268" y="731"/>
			<point x="45" y="482"/>
			<point x="45" y="191" type="curve" smooth="yes"/>
			<point x="45" y="-46"/>
			<point x="196" y="-194"/>
			<point x="397" y="-194" type="curve" smooth="yes"/>
			<point x="522" y="-194"/>
			<point x="626" y="-155"/>
			<point x="695" y="-105" type="curve"/>
		</contour>
	</outline>
	<guideline x="1680"/>
	<guideline y="45"/>
</glyph>
<glyph name="A" format="2">
	<unicode hex="0041"/>
	<advance width="763"/>
	<outline>
		<contour>
			<point x="146" y="132" type="line"/>
			<point x="567" y="132" type="line"/>
			<point x="597" y="273" type="line"/>
			<point x="176" y="273" type="line"/>
		</contour>
		<contour>
			<point x="-26" y="0" type="line"/>
			<point x="153" y="0" type="line"/>
			<point x="479" y="591" type="line"/>
			<point x="442" y="591" type="line"/>
			<point x="520" y="0" type="line"/>
			<point x="688" y="0" type="line"/>
			<point x="574" y="715" type="line"/>
			<point x="388" y="715" type="line"/>
		</contour>
	</outline>
	<anchor name="ogonek.UC" x="526" y="-30"/>
	<anchor name="top.UC" x="470" y="750"/>
	<guideline x="-22" y="0" angle="102"/>
	<guideline x="680" y="0" angle="102"/>
</glyph>
<glyph name="D" format="2">
	<unicode hex="0044"/>
	<advance width="744"/>
	<outline>
		<contour>
			<point x="25" y="0" type="line"/>
			<point x="283" y="0" type="line" smooth="yes"/>
			<point x="545" y="0"/>
			<point x="727" y="171"/>
			<point x="727" y="417" type="curve" smooth="yes"/>
			<point x="727" y="601"/>
			<point x="608" y="715"/>
			<point x="415" y="715" type="curve" smooth="yes"/>
			<point x="176" y="715" type="line"/>
		</contour>
		<contour>
			<point x="220" y="141" type="line"/>
			<point x="313" y="574" type="line"/>
			<point x="392" y="574" type="line" smooth="yes"/>
			<point x="492" y="574"/>
			<point x="552" y="511"/>
			<point x="552" y="405" type="curve" smooth="yes"/>
			<point x="552" y="252"/>
			<point x="445" y="141"/>
			<point x="299" y="141" type="curve" smooth="yes"/>
		</contour>
	</outline>
	<anchor name="top.UC" x="416" y="750"/>
	<guideline x="649" y="0" angle="102"/>
</glyph>
<glyph name="E" format="2">
	<unicode hex="0045"/>
	<advance width="603"/>
	<outline>
		<contour>
			<point x="25" y="0" type="line"/>
			<point x="521" y="0" type="line"/>
			<point x="551" y="141" type="line"/>
			<point x="221" y="141" type="line"/>
			<point x="313" y="574" type="line"/>
			<point x="628" y="574" type="line"/>
			<point x="658" y="715" type="line"/>
			<point x="176" y="715" type="line"/>
		</contour>
		<contour>
			<point x="242" y="289" type="line"/>
			<point x="550" y="289" type="line"/>
			<point x="580" y="430" type="line"/>
			<point x="272" y="430" type="line"/>
		</contour>
	</outline>
	<anchor name="ogonek.UC" x="386" y="-30"/>
	<anchor name="top.UC" x="423" y="750"/>
	<guideline x="487" y="0" angle="102"/>
</glyph>
<glyph name="F" format="2">
	<unicode hex="0046"/>
	<advance width="572"/>
	<outline>
		<contour>
			<point x="25" y="0" type="line"/>
			<point x="191" y="0" type="line"/>
			<point x="313" y="574" type="line"/>
			<point x="610" y="574" type="line"/>
			<point x="640" y="715" type="line"/>
			<point x="177" y="715" type="line"/>
		</contour>
		<contour>
			<point x="241" y="283" type="line"/>
			<point x="530" y="283" type="line"/>
			<point x="560" y="424" type="line"/>
			<point x="271" y="424" type="line"/>
		</contour>
	</outline>
	<guideline x="25" y="0" angle="102"/>
	<guideline x="191" y="0" angle="102"/>
	<guideline x="470" y="0" angle="102"/>
</glyph>
<glyph name="G" format="2">
	<unicode hex="0047"/>
	<advance width="754"/>
	<outline>
		<contour>
			<point x="512" y="0" type="line"/>
			<point x="665" y="0" type="line"/>
			<point x="750" y="402" type="line"/>
			<point x="429" y="402" type="line"/>
			<point x="401" y="269" type="line"/>
			<point x="617" y="269" type="line"/>
			<point x="577" y="308" type="line"/>
			<point x="537" y="124" type="line"/>
			<point x="592" y="261" type="line"/>
			<point x="554" y="181"/>
			<point x="478" y="132"/>
			<point x="392" y="132" type="curve" smooth="yes"/>
			<point x="298" y="132"/>
			<point x="235" y="202"/>
			<point x="235" y="306" type="curve" smooth="yes"/>
			<point x="235" y="465"/>
			<point x="336" y="583"/>
			<point x="472" y="583" type="curve" smooth="yes"/>
			<point x="536" y="583"/>
			<point x="587" y="554"/>
			<point x="626" y="495" type="curve"/>
			<point x="744" y="596" type="line"/>
			<point x="685" y="683"/>
			<point x="589" y="731"/>
			<point x="473" y="731" type="curve" smooth="yes"/>
			<point x="244" y="731"/>
			<point x="60" y="542"/>
			<point x="60" y="306" type="curve" smooth="yes"/>
			<point x="60" y="117"/>
			<point x="178" y="-16"/>
			<point x="347" y="-16" type="curve" smooth="yes"/>
			<point x="434" y="-16"/>
			<point x="508" y="25"/>
			<point x="558" y="101" type="curve"/>
			<point x="531" y="93" type="line"/>
		</contour>
	</outline>
	<anchor name="top.UC" x="482" y="750"/>
	<anchor name="bottom.UC" x="361" y="-50"/>
	<guideline x="302"/>
	<guideline x="472"/>
	<guideline y="583"/>
	<guideline x="322" y="0" angle="102"/>
	<guideline x="511" y="0" angle="102"/>
</glyph>
<glyph name="H" format="2">
	<unicode hex="0048"/>
	<advance width="745"/>
	<outline>
		<contour>
			<point x="447" y="0" type="line"/>
			<point x="613" y="0" type="line"/>
			<point x="764" y="715" type="line"/>
			<point x="598" y="715" type="line"/>
		</contour>
		<contour>
			<point x="25" y="0" type="line"/>
			<point x="191" y="0" type="line"/>
			<point x="342" y="715" type="line"/>
			<point x="176" y="715" type="line"/>
		</contour>
		<contour>
			<point x="243" y="294" type="line"/>
			<point x="518" y="294" type="line"/>
			<point x="548" y="436" type="line"/>
			<point x="273" y="436" type="line"/>
		</contour>
	</outline>
	<anchor name="bottom.UC" x="315" y="-50"/>
	<anchor name="top.UC" x="482" y="750"/>
	<guideline x="323" y="0" angle="102"/>
</glyph>
<glyph name="I" format="2">
	<unicode hex="0049"/>
	<advance width="323"/>
	<outline>
		<contour>
			<point x="25" y="0" type="line"/>
			<point x="191" y="0" type="line"/>
			<point x="342" y="715" type="line"/>
			<point x="176" y="715" type="line"/>
		</contour>
	</outline>
	<anchor name="ogonek.UC" x="56" y="-30"/>
	<anchor name="top.UC" x="270" y="750"/>
	<guideline y="749"/>
	<guideline x="112" y="0" angle="102"/>
</glyph>
<glyph name="J" format="2">
	<unicode hex="004A"/>
	<advance width="657"/>
	<outline>
		<contour>
			<point x="31" y="261" type="line"/>
			<point x="28" y="241"/>
			<point x="27" y="221"/>
			<point x="27" y="200" type="curve" smooth="yes"/>
			<point x="27" y="76"/>
			<point x="127" y="-16"/>
			<point x="262" y="-16" type="curve" smooth="yes"/>
			<point x="448" y="-16"/>
			<point x="550" y="75"/>
			<point x="593" y="278" type="curve" smooth="yes"/>
			<point x="686" y="715" type="line"/>
			<point x="520" y="715" type="line"/>
			<point x="429" y="285" type="line" smooth="yes"/>
			<point x="408" y="185"/>
			<point x="360" y="133"/>
			<point x="289" y="133" type="curve" smooth="yes"/>
			<point x="224" y="133"/>
			<point x="190" y="169"/>
			<point x="190" y="240" type="curve" smooth="yes"/>
			<point x="190" y="253"/>
			<point x="191" y="267"/>
			<point x="193" y="280" type="curve"/>
		</contour>
	</outline>
	<anchor name="top.UC" x="611" y="750"/>
	<guideline x="-31" y="0" angle="102"/>
	<guideline x="453" y="0" angle="102"/>
	<guideline x="533" y="0" angle="102"/>
</glyph>
<glyph name="K" format="2">
	<unicode hex="004B"/>
	<advance width="746"/>
	<outline>
		<contour>
			<point x="25" y="0" type="line"/>
			<point x="191" y="0" type="line"/>
			<point x="342" y="715" type="line"/>
			<point x="176" y="715" type="line"/>
		</contour>
		<contour>
			<point x="482" y="0" type="line"/>
			<point x="672" y="0" type="line"/>
			<point x="420" y="394" type="line"/>
			<point x="401" y="338" type="line"/>
			<point x="785" y="715" type="line"/>
			<point x="592" y="715" type="line"/>
			<point x="257" y="379" type="line"/>
			<point x="246" y="379" type="line"/>
		</contour>
	</outline>
	<anchor name="bottom.UC" x="338" y="-50"/>
	<anchor name="top.UC" x="455" y="750"/>
	<guideline x="667" y="0" angle="102"/>
</glyph>
<glyph name="L" format="2">
	<unicode hex="004C"/>
	<advance width="568"/>
	<outline>
		<contour>
			<point x="25" y="0" type="line"/>
			<point x="487" y="0" type="line"/>
			<point x="517" y="145" type="line"/>
			<point x="222" y="145" type="line"/>
			<point x="342" y="715" type="line"/>
			<point x="176" y="715" type="line"/>
		</contour>
	</outline>
	<anchor name="bottom.UC" x="269" y="-50"/>
	<anchor name="top.UC" x="270" y="750"/>
	<anchor name="top_right" x="443" y="540"/>
	<guideline x="111" y="0" angle="102"/>
	<guideline x="280" y="0" angle="102"/>
	<guideline x="487" y="0" angle="102"/>
</glyph>
<glyph name="M" format="2">
	<unicode hex="004D"/>
	<advance width="907"/>
	<outline>
		<contour>
			<point x="25" y="0" type="line"/>
			<point x="185" y="0" type="line"/>
			<point x="325" y="662" type="line"/>
			<point x="234" y="662" type="line"/>
			<point x="356" y="87" type="line"/>
			<point x="473" y="87" type="line"/>
			<point x="853" y="662" type="line"/>
			<point x="753" y="662" type="line"/>
			<point x="613" y="0" type="line"/>
			<point x="775" y="0" type="line"/>
			<point x="926" y="715" type="line"/>
			<point x="741" y="715" type="line"/>
			<point x="406" y="203" type="line"/>
			<point x="464" y="203" type="line"/>
			<point x="360" y="715" type="line"/>
			<point x="176" y="715" type="line"/>
		</contour>
	</outline>
	<guideline y="435"/>
	<guideline y="443"/>
</glyph>
<glyph name="N" format="2">
	<unicode hex="004E"/>
	<advance width="760"/>
	<outline>
		<contour>
			<point x="25" y="0" type="line"/>
			<point x="188" y="0" type="line"/>
			<point x="306" y="560" type="line"/>
			<point x="243" y="560" type="line"/>
			<point x="457" y="0" type="line"/>
			<point x="628" y="0" type="line"/>
			<point x="779" y="715" type="line"/>
			<point x="616" y="715" type="line"/>
			<point x="498" y="155" type="line"/>
			<point x="562" y="155" type="line"/>
			<point x="348" y="715" type="line"/>
			<point x="176" y="715" type="line"/>
		</contour>
	</outline>
	<anchor name="bottom.UC" x="327" y="-50"/>
	<anchor name="top.UC" x="469" y="750"/>
	<guideline x="339" y="0" angle="102"/>
</glyph>
<glyph name="P" format="2">
	<unicode hex="0050"/>
	<advance width="641"/>
	<outline>
		<contour>
			<point x="25" y="0" type="line"/>
			<point x="191" y="0" type="line"/>
			<point x="312" y="574" type="line"/>
			<point x="404" y="574" type="line" smooth="yes"/>
			<point x="462" y="574"/>
			<point x="489" y="543"/>
			<point x="489" y="502" type="curve" smooth="yes"/>
			<point x="489" y="445"/>
			<point x="450" y="398"/>
			<point x="366" y="398" type="curve" smooth="yes"/>
			<point x="265" y="398" type="line"/>
			<point x="235" y="257" type="line"/>
			<point x="346" y="257" type="line" smooth="yes"/>
			<point x="540" y="257"/>
			<point x="656" y="370"/>
			<point x="656" y="514" type="curve" smooth="yes"/>
			<point x="656" y="629"/>
			<point x="585" y="715"/>
			<point x="429" y="715" type="curve" smooth="yes"/>
			<point x="176" y="715" type="line"/>
		</contour>
	</outline>
	<guideline x="553" y="0" angle="102"/>
</glyph>
<glyph name="Q" format="2">
	<unicode hex="0051"/>
	<advance width="811"/>
	<outline>
		<contour>
			<point x="495" y="337" type="line"/>
			<point x="387" y="259" type="line"/>
			<point x="622" y="-64" type="line"/>
			<point x="730" y="14" type="line"/>
		</contour>
		<contour>
			<point x="473" y="731" type="curve" smooth="yes"/>
			<point x="247" y="731"/>
			<point x="61" y="531"/>
			<point x="61" y="289" type="curve" smooth="yes"/>
			<point x="61" y="103"/>
			<point x="184" y="-16"/>
			<point x="378" y="-16" type="curve" smooth="yes"/>
			<point x="604" y="-16"/>
			<point x="790" y="184"/>
			<point x="790" y="426" type="curve" smooth="yes"/>
			<point x="790" y="612"/>
			<point x="667" y="731"/>
		</contour>
		<contour>
			<point x="464" y="582" type="curve" smooth="yes"/>
			<point x="558" y="582"/>
			<point x="618" y="515"/>
			<point x="618" y="412" type="curve" smooth="yes"/>
			<point x="618" y="259"/>
			<point x="514" y="133"/>
			<point x="387" y="133" type="curve" smooth="yes"/>
			<point x="293" y="133"/>
			<point x="233" y="200"/>
			<point x="233" y="303" type="curve" smooth="yes"/>
			<point x="233" y="456"/>
			<point x="337" y="582"/>
		</contour>
	</outline>
</glyph>
<glyph name="S" format="2">
	<unicode hex="0053"/>
	<advance width="654"/>
	<outline>
		<contour>
			<point x="2" y="120" type="line"/>
			<point x="53" y="41"/>
			<point x="183" y="-16"/>
			<point x="312" y="-16" type="curve" smooth="yes"/>
			<point x="486" y="-16"/>
			<point x="614" y="88"/>
			<point x="614" y="229" type="curve" smooth="yes"/>
			<point x="614" y="336"/>
			<point x="548" y="398"/>
			<point x="394" y="436" type="curve" smooth="yes"/>
			<point x="295" y="460"/>
			<point x="268" y="478"/>
			<point x="268" y="516" type="curve" smooth="yes"/>
			<point x="268" y="556"/>
			<point x="318" y="589"/>
			<point x="380" y="589" type="curve" smooth="yes"/>
			<point x="460" y="589"/>
			<point x="524" y="558"/>
			<point x="574" y="494" type="curve"/>
			<point x="684" y="593" type="line"/>
			<point x="632" y="678"/>
			<point x="519" y="731"/>
			<point x="389" y="731" type="curve" smooth="yes"/>
			<point x="225" y="731"/>
			<point x="97" y="624"/>
			<point x="97" y="487" type="curve" smooth="yes"/>
			<point x="97" y="384"/>
			<point x="161" y="326"/>
			<point x="318" y="288" type="curve" smooth="yes"/>
			<point x="412" y="265"/>
			<point x="441" y="246"/>
			<point x="441" y="205" type="curve" smooth="yes"/>
			<point x="441" y="157"/>
			<point x="394" y="126"/>
			<point x="321" y="126" type="curve" smooth="yes"/>
			<point x="241" y="126"/>
			<point x="169" y="159"/>
			<point x="114" y="222" type="curve"/>
		</contour>
	</outline>
	<anchor name="top.UC" x="405" y="750"/>
	<anchor name="bottom.UC" x="302" y="-50"/>
	<guideline x="302"/>
	<guideline x="411"/>
	<guideline y="731"/>
	<guideline x="311" y="0" angle="102"/>
</glyph>
<glyph name="T" format="2">
	<unicode hex="0054"/>
	<advance width="614"/>
	<outline>
		<contour>
			<point x="171" y="0" type="line"/>
			<point x="337" y="0" type="line"/>
			<point x="460" y="582" type="line"/>
			<point x="294" y="582" type="line"/>
		</contour>
		<contour>
			<point x="97" y="572" type="line"/>
			<point x="653" y="572" type="line"/>
			<point x="683" y="715" type="line"/>
			<point x="127" y="715" type="line"/>
		</contour>
	</outline>
	<anchor name="bottom.UC" x="244" y="-50"/>
	<anchor name="top.UC" x="402" y="750"/>
	<guideline x="-26" y="0" angle="102"/>
	<guideline x="257" y="0" angle="102"/>
	<guideline x="529" y="0" angle="102"/>
</glyph>
<glyph name="U" format="2">
	<unicode hex="0055"/>
	<advance width="728"/>
	<outline>
		<contour>
			<point x="75" y="282" type="line" smooth="yes"/>
			<point x="69" y="254"/>
			<point x="66" y="227"/>
			<point x="66" y="202" type="curve" smooth="yes"/>
			<point x="66" y="62"/>
			<point x="157" y="-16"/>
			<point x="322" y="-16" type="curve" smooth="yes"/>
			<point x="514" y="-16"/>
			<point x="624" y="88"/>
			<point x="665" y="282" type="curve" smooth="yes"/>
			<point x="757" y="715" type="line"/>
			<point x="592" y="715" type="line"/>
			<point x="500" y="282" type="line" smooth="yes"/>
			<point x="480" y="191"/>
			<point x="427" y="133"/>
			<point x="343" y="133" type="curve" smooth="yes"/>
			<point x="274" y="133"/>
			<point x="234" y="168"/>
			<point x="234" y="228" type="curve" smooth="yes"/>
			<point x="234" y="241"/>
			<point x="238" y="268"/>
			<point x="241" y="282" type="curve" smooth="yes"/>
			<point x="333" y="715" type="line"/>
			<point x="167" y="715" type="line"/>
		</contour>
	</outline>
	<anchor name="ogonek.UC.round" x="310" y="-30"/>
	<anchor name="top.UC" x="473" y="750"/>
	<guideline x="14" y="0" angle="102"/>
	<guideline x="317" y="0" angle="102"/>
	<guideline x="604" y="0" angle="102"/>
</glyph>
<glyph name="W" format="2">
	<unicode hex="0057"/>
	<advance width="1002"/>
	<outline>
		<contour>
			<point x="156" y="0" type="line"/>
			<point x="327" y="0" type="line"/>
			<point x="571" y="502" type="line"/>
			<point x="546" y="502" type="line"/>
			<point x="569" y="0" type="line"/>
			<point x="741" y="0" type="line"/>
			<point x="1068" y="715" type="line"/>
			<point x="886" y="715" type="line"/>
			<point x="661" y="160" type="line"/>
			<point x="697" y="160" type="line"/>
			<point x="670" y="715" type="line"/>
			<point x="531" y="715" type="line"/>
			<point x="262" y="160" type="line"/>
			<point x="297" y="160" type="line"/>
			<point x="301" y="715" type="line"/>
			<point x="130" y="715" type="line"/>
		</contour>
	</outline>
	<anchor name="top.UC" x="611" y="750"/>
	<guideline y="244"/>
	<guideline x="455" y="0" angle="102"/>
</glyph>
<glyph name="Y" format="2">
	<unicode hex="0059"/>
	<advance width="735"/>
	<outline>
		<contour>
			<point x="231" y="0" type="line"/>
			<point x="397" y="0" type="line"/>
			<point x="455" y="276" type="line"/>
			<point x="806" y="715" type="line"/>
			<point x="615" y="715" type="line"/>
			<point x="383" y="406" type="line"/>
			<point x="411" y="406" type="line"/>
			<point x="305" y="715" type="line"/>
			<point x="126" y="715" type="line"/>
			<point x="290" y="277" type="line"/>
		</contour>
	</outline>
	<anchor name="top.UC" x="460" y="750"/>
	<guideline x="-27" y="0" angle="102"/>
	<guideline x="317" y="0" angle="102"/>
	<guideline x="652" y="0" angle="102"/>
</glyph>
<glyph name="Z" format="2">
	<unicode hex="005A"/>
	<advance width="604"/>
	<outline>
		<contour>
			<point x="-18" y="0" type="line"/>
			<point x="512" y="0" type="line"/>
			<point x="542" y="141" type="line"/>
			<point x="217" y="141" type="line"/>
			<point x="621" y="574" type="line"/>
			<point x="651" y="715" type="line"/>
			<point x="138" y="715" type="line"/>
			<point x="108" y="574" type="line"/>
			<point x="416" y="574" type="line"/>
			<point x="12" y="141" type="line"/>
		</contour>
	</outline>
	<anchor name="top.UC" x="402" y="750"/>
	<guideline x="-19" y="0" angle="102"/>
	<guideline x="242" y="0" angle="102"/>
	<guideline x="498" y="0" angle="102"/>
	<guideline x="519" y="0" angle="102"/>
</glyph>
<glyph name="bracketleft" format="2">
	<unicode hex="005B"/>
	<advance width="334"/>
	<outline>
		<contour>
			<point x="-18" y="-129" type="line"/>
			<point x="229" y="-129" type="line"/>
			<point x="256" y="0" type="line"/>
			<point x="167" y="0" type="line"/>
			<point x="294" y="602" type="line"/>
			<point x="384" y="602" type="line"/>
			<point x="411" y="731" type="line"/>
			<point x="164" y="731" type="line"/>
		</contour>
	</outline>
</glyph>
<glyph name="bracketright" format="2">
	<unicode hex="005D"/>
	<advance width="334"/>
	<outline>
		<contour>
			<point x="-56" y="-129" type="line"/>
			<point x="190" y="-129" type="line"/>
			<point x="372" y="731" type="line"/>
			<point x="126" y="731" type="line"/>
			<point x="99" y="602" type="line"/>
			<point x="187" y="602" type="line"/>
			<point x="60" y="0" type="line"/>
			<point x="-29" y="0" type="line"/>
		</contour>
	</outline>
</glyph>
<glyph name="asciicircum" format="2">
	<unicode hex="005E"/>
	<advance width="632"/>
	<outline>
		<contour>
			<point x="83" y="354" type="line"/>
			<point x="240" y="354" type="line"/>
			<point x="470" y="715" type="line"/>
			<point x="321" y="715" type="line"/>
		</contour>
		<contour>
			<point x="430" y="354" type="line"/>
			<point x="580" y="354" type="line"/>
			<point x="493" y="715" type="line"/>
			<point x="355" y="715" type="line"/>
		</contour>
	</outline>
</glyph>
<glyph name="c" format="2">
	<unicode hex="0063"/>
	<advance width="535"/>
	<outline>
		<contour>
			<point x="405" y="180" type="line"/>
			<point x="375" y="142"/>
			<point x="336" y="121"/>
			<point x="295" y="121" type="curve" smooth="yes"/>
			<point x="239" y="121"/>
			<point x="202" y="164"/>
			<point x="202" y="230" type="curve" smooth="yes"/>
			<point x="202" y="316"/>
			<point x="262" y="388"/>
			<point x="335" y="388" type="curve" smooth="yes"/>
			<point x="379" y="388"/>
			<point x="409" y="368"/>
			<point x="433" y="322" type="curve"/>
			<point x="549" y="411" type="line"/>
			<point x="504" y="485"/>
			<point x="427" y="526"/>
			<point x="337" y="526" type="curve" smooth="yes"/>
			<point x="167" y="526"/>
			<point x="33" y="388"/>
			<point x="33" y="213" type="curve" smooth="yes"/>
			<point x="33" y="81"/>
			<point x="133" y="-16"/>
			<point x="267" y="-16" type="curve" smooth="yes"/>
			<point x="350" y="-16"/>
			<point x="413" y="9"/>
			<point x="478" y="69" type="curve"/>
		</contour>
	</outline>
	<anchor name="top.LC" x="351" y="544"/>
	<anchor name="bottom.LC" x="253" y="-50"/>
	<guideline y="189"/>
	<guideline y="321"/>
	<guideline x="259" y="0" angle="102"/>
</glyph>
<glyph name="e" format="2">
	<unicode hex="0065"/>
	<advance width="570"/>
	<outline>
		<contour>
			<point x="130" y="208" type="line"/>
			<point x="330" y="208" type="line" smooth="yes"/>
			<point x="466" y="208"/>
			<point x="545" y="265"/>
			<point x="545" y="362" type="curve" smooth="yes"/>
			<point x="545" y="459"/>
			<point x="459" y="526"/>
			<point x="333" y="526" type="curve" smooth="yes"/>
			<point x="164" y="526"/>
			<point x="33" y="393"/>
			<point x="33" y="222" type="curve" smooth="yes"/>
			<point x="33" y="80"/>
			<point x="136" y="-16"/>
			<point x="288" y="-16" type="curve" smooth="yes"/>
			<point x="377" y="-16"/>
			<point x="449" y="11"/>
			<point x="505" y="66" type="curve"/>
			<point x="435" y="170" type="line"/>
			<point x="399" y="132"/>
			<point x="354" y="111"/>
			<point x="308" y="111" type="curve" smooth="yes"/>
			<point x="239" y="111"/>
			<point x="200" y="151"/>
			<point x="200" y="222" type="curve" smooth="yes"/>
			<point x="200" y="328"/>
			<point x="254" y="401"/>
			<point x="332" y="401" type="curve" smooth="yes"/>
			<point x="363" y="401"/>
			<point x="385" y="383"/>
			<point x="385" y="357" type="curve" smooth="yes"/>
			<point x="385" y="325"/>
			<point x="357" y="305"/>
			<point x="311" y="305" type="curve" smooth="yes"/>
			<point x="130" y="305" type="line"/>
		</contour>
	</outline>
	<anchor name="top.LC" x="345" y="544"/>
	<anchor name="ogonek.LC.round" x="302" y="-30"/>
	<guideline y="222"/>
	<guideline x="249" y="0" angle="102"/>
</glyph>
<glyph name="f" format="2">
	<unicode hex="0066"/>
	<advance width="398"/>
	<outline>
		<contour>
			<point x="45" y="0" type="line"/>
			<point x="208" y="0" type="line"/>
			<point x="323" y="541" type="line" smooth="yes"/>
			<point x="331" y="580"/>
			<point x="346" y="593"/>
			<point x="376" y="593" type="curve" smooth="yes"/>
			<point x="434" y="593" type="line"/>
			<point x="461" y="720" type="line"/>
			<point x="343" y="720" type="line" smooth="yes"/>
			<point x="244" y="720"/>
			<point x="187" y="670"/>
			<point x="165" y="566" type="curve" smooth="yes"/>
		</contour>
		<contour>
			<point x="57" y="379" type="line"/>
			<point x="388" y="379" type="line"/>
			<point x="416" y="510" type="line"/>
			<point x="84" y="510" type="line"/>
		</contour>
	</outline>
	<guideline x="308" y="0" angle="102"/>
</glyph>
<glyph name="i" format="2">
	<unicode hex="0069"/>
	<advance width="275"/>
	<outline>
		<contour>
			<point x="4" y="0" type="line"/>
			<point x="167" y="0" type="line"/>
			<point x="275" y="510" type="line"/>
			<point x="112" y="510" type="line"/>
		</contour>
		<contour>
			<point x="128" y="649" type="curve" smooth="yes"/>
			<point x="128" y="602"/>
			<point x="162" y="569"/>
			<point x="211" y="569" type="curve" smooth="yes"/>
			<point x="274" y="569"/>
			<point x="322" y="615"/>
			<point x="322" y="674" type="curve" smooth="yes"/>
			<point x="322" y="721"/>
			<point x="288" y="754"/>
			<point x="239" y="754" type="curve" smooth="yes"/>
			<point x="176" y="754"/>
			<point x="128" y="708"/>
		</contour>
	</outline>
	<anchor name="ogonek.LC" x="48" y="-30"/>
	<guideline x="4"/>
	<guideline x="167"/>
	<guideline y="648"/>
	<guideline x="94" y="0" angle="102"/>
</glyph>
<glyph name="j" format="2">
	<unicode hex="006A"/>
	<advance width="275"/>
	<outline>
		<contour>
			<point x="-115" y="-194" type="line"/>
			<point x="-18" y="-194" type="line" smooth="yes"/>
			<point x="80" y="-194"/>
			<point x="137" y="-145"/>
			<point x="159" y="-40" type="curve" smooth="yes"/>
			<point x="276" y="510" type="line"/>
			<point x="113" y="510" type="line"/>
			<point x="3" y="-8" type="line" smooth="yes"/>
			<point x="-5" y="-47"/>
			<point x="-18" y="-60"/>
			<point x="-50" y="-60" type="curve" smooth="yes"/>
			<point x="-87" y="-60" type="line"/>
		</contour>
		<contour>
			<point x="129" y="649" type="curve" smooth="yes"/>
			<point x="129" y="602"/>
			<point x="163" y="569"/>
			<point x="212" y="569" type="curve" smooth="yes"/>
			<point x="275" y="569"/>
			<point x="323" y="615"/>
			<point x="323" y="674" type="curve" smooth="yes"/>
			<point x="323" y="721"/>
			<point x="289" y="754"/>
			<point x="240" y="754" type="curve" smooth="yes"/>
			<point x="177" y="754"/>
			<point x="129" y="708"/>
		</contour>
	</outline>
</glyph>
<glyph name="l" format="2">
	<unicode hex="006C"/>
	<advance width="325"/>
	<outline>
		<contour>
			<point x="49" y="186" type="line" smooth="yes"/>
			<point x="42" y="154"/>
			<point x="38" y="129"/>
			<point x="38" y="114" type="curve" smooth="yes"/>
			<point x="38" y="33"/>
			<point x="76" y="0"/>
			<point x="169" y="0" type="curve" smooth="yes"/>
			<point x="256" y="0" type="line"/>
			<point x="284" y="134" type="line"/>
			<point x="239" y="134" type="line" smooth="yes"/>
			<point x="218" y="134"/>
			<point x="208" y="142"/>
			<point x="208" y="162" type="curve" smooth="yes"/>
			<point x="208" y="169"/>
			<point x="210" y="178"/>
			<point x="212" y="188" type="curve" smooth="yes"/>
			<point x="325" y="720" type="line"/>
			<point x="162" y="720" type="line"/>
		</contour>
	</outline>
	<anchor name="bottom.LC" x="122" y="-50"/>
	<anchor name="top.LC" x="251" y="766"/>
	<anchor name="top_right" x="414" y="540"/>
	<guideline x="143" y="0" angle="102"/>
</glyph>
<glyph name="n" format="2">
	<unicode hex="006E"/>
	<advance width="596"/>
	<outline>
		<contour>
			<point x="9" y="0" type="line"/>
			<point x="172" y="0" type="line"/>
			<point x="221" y="232" type="line" smooth="yes"/>
			<point x="242" y="332"/>
			<point x="285" y="391"/>
			<point x="341" y="391" type="curve" smooth="yes"/>
			<point x="373" y="391"/>
			<point x="391" y="369"/>
			<point x="391" y="332" type="curve" smooth="yes"/>
			<point x="391" y="319"/>
			<point x="387" y="294"/>
			<point x="381" y="263" type="curve" smooth="yes"/>
			<point x="326" y="0" type="line"/>
			<point x="489" y="0" type="line"/>
			<point x="545" y="263" type="line" smooth="yes"/>
			<point x="554" y="305"/>
			<point x="558" y="338"/>
			<point x="558" y="368" type="curve" smooth="yes"/>
			<point x="558" y="463"/>
			<point x="505" y="526"/>
			<point x="426" y="526" type="curve" smooth="yes"/>
			<point x="334" y="526"/>
			<point x="254" y="458"/>
			<point x="223" y="350" type="curve"/>
			<point x="245" y="350" type="line"/>
			<point x="279" y="510" type="line"/>
			<point x="117" y="510" type="line"/>
		</contour>
	</outline>
	<anchor name="bottom.LC" x="245" y="-50"/>
	<anchor name="top.LC" x="365" y="544"/>
	<guideline x="257" y="0" angle="102"/>
</glyph>
<glyph name="o" format="2">
	<unicode hex="006F"/>
	<advance width="607"/>
	<outline>
		<contour>
			<point x="33" y="222" type="curve" smooth="yes"/>
			<point x="33" y="73"/>
			<point x="126" y="-16"/>
			<point x="283" y="-16" type="curve" smooth="yes"/>
			<point x="442" y="-16"/>
			<point x="574" y="122"/>
			<point x="574" y="288" type="curve" smooth="yes"/>
			<point x="574" y="437"/>
			<point x="481" y="526"/>
			<point x="324" y="526" type="curve" smooth="yes"/>
			<point x="165" y="526"/>
			<point x="33" y="388"/>
		</contour>
		<contour>
			<point x="283" y="120" type="curve" smooth="yes"/>
			<point x="232" y="120"/>
			<point x="201" y="159"/>
			<point x="201" y="222" type="curve" smooth="yes"/>
			<point x="201" y="313"/>
			<point x="258" y="390"/>
			<point x="324" y="390" type="curve" smooth="yes"/>
			<point x="375" y="390"/>
			<point x="406" y="351"/>
			<point x="406" y="288" type="curve" smooth="yes"/>
			<point x="406" y="197"/>
			<point x="349" y="120"/>
		</contour>
	</outline>
	<anchor name="top.LC" x="343" y="544"/>
	<guideline x="209"/>
	<guideline x="287"/>
	<guideline x="298"/>
	<guideline y="224"/>
	<guideline y="375"/>
</glyph>
<glyph name="r" format="2">
	<unicode hex="0072"/>
	<advance width="417"/>
	<outline>
		<contour>
			<point x="9" y="0" type="line"/>
			<point x="172" y="0" type="line"/>
			<point x="218" y="219" type="line" smooth="yes"/>
			<point x="240" y="325"/>
			<point x="289" y="370"/>
			<point x="375" y="370" type="curve" smooth="yes"/>
			<point x="406" y="370" type="line"/>
			<point x="437" y="519" type="line"/>
			<point x="414" y="519" type="line" smooth="yes"/>
			<point x="323" y="519"/>
			<point x="253" y="448"/>
			<point x="214" y="313" type="curve"/>
			<point x="238" y="313" type="line"/>
			<point x="279" y="510" type="line"/>
			<point x="117" y="510" type="line"/>
		</contour>
	</outline>
	<anchor name="top.LC" x="282" y="544"/>
</glyph>
<glyph name="s" format="2">
	<unicode hex="0073"/>
	<advance width="508"/>
	<outline>
		<contour>
			<point x="-10" y="81" type="line"/>
			<point x="39" y="11"/>
			<point x="141" y="-16"/>
			<point x="229" y="-16" type="curve" smooth="yes"/>
			<point x="352" y="-16"/>
			<point x="467" y="45"/>
			<point x="467" y="164" type="curve" smooth="yes"/>
			<point x="467" y="245"/>
			<point x="413" y="294"/>
			<point x="296" y="322" type="curve" smooth="yes"/>
			<point x="228" y="338"/>
			<point x="211" y="349"/>
			<point x="211" y="368" type="curve" smooth="yes"/>
			<point x="211" y="394"/>
			<point x="238" y="408"/>
			<point x="282" y="408" type="curve" smooth="yes"/>
			<point x="340" y="408"/>
			<point x="391" y="378"/>
			<point x="414" y="342" type="curve"/>
			<point x="509" y="432" type="line"/>
			<point x="466" y="489"/>
			<point x="383" y="526"/>
			<point x="288" y="526" type="curve" smooth="yes"/>
			<point x="156" y="526"/>
			<point x="59" y="454"/>
			<point x="59" y="352" type="curve" smooth="yes"/>
			<point x="59" y="274"/>
			<point x="115" y="218"/>
			<point x="232" y="192" type="curve" smooth="yes"/>
			<point x="291" y="179"/>
			<point x="313" y="168"/>
			<point x="313" y="145" type="curve" smooth="yes"/>
			<point x="313" y="110"/>
			<point x="263" y="103"/>
			<point x="239" y="103" type="curve" smooth="yes"/>
			<point x="167" y="103"/>
			<point x="107" y="135"/>
			<point x="81" y="172" type="curve"/>
		</contour>
	</outline>
	<anchor name="bottom.LC" x="186" y="-50"/>
	<anchor name="top.LC" x="304" y="544"/>
	<guideline y="103"/>
	<guideline x="222" y="0" angle="102"/>
</glyph>
<glyph name="t" format="2">
	<unicode hex="0074"/>
	<advance width="393"/>
	<outline>
		<contour>
			<point x="81" y="186" type="line" smooth="yes"/>
			<point x="75" y="159"/>
			<point x="72" y="137"/>
			<point x="72" y="119" type="curve" smooth="yes"/>
			<point x="72" y="36"/>
			<point x="121" y="0"/>
			<point x="233" y="0" type="curve" smooth="yes"/>
			<point x="309" y="0" type="line"/>
			<point x="337" y="134" type="line"/>
			<point x="289" y="134" type="line" smooth="yes"/>
			<point x="256" y="134"/>
			<point x="243" y="143"/>
			<point x="243" y="167" type="curve" smooth="yes"/>
			<point x="243" y="176"/>
			<point x="244" y="185"/>
			<point x="247" y="200" type="curve" smooth="yes"/>
			<point x="340" y="636" type="line"/>
			<point x="177" y="636" type="line"/>
		</contour>
		<contour>
			<point x="50" y="379" type="line"/>
			<point x="385" y="379" type="line"/>
			<point x="413" y="510" type="line"/>
			<point x="78" y="510" type="line"/>
		</contour>
	</outline>
	<anchor name="bottom.LC" x="190" y="-50"/>
	<anchor name="top_right.LC.short" x="406" y="540"/>
</glyph>
<glyph name="u" format="2">
	<unicode hex="0075"/>
	<advance width="592"/>
	<outline>
		<contour>
			<point x="475" y="0" type="line"/>
			<point x="583" y="510" type="line"/>
			<point x="420" y="510" type="line"/>
			<point x="371" y="278" type="line" smooth="yes"/>
			<point x="350" y="176"/>
			<point x="307" y="119"/>
			<point x="252" y="119" type="curve" smooth="yes"/>
			<point x="223" y="119"/>
			<point x="205" y="141"/>
			<point x="205" y="178" type="curve" smooth="yes"/>
			<point x="205" y="190"/>
			<point x="208" y="212"/>
			<point x="215" y="247" type="curve" smooth="yes"/>
			<point x="270" y="510" type="line"/>
			<point x="107" y="510" type="line"/>
			<point x="51" y="247" type="line" smooth="yes"/>
			<point x="42" y="205"/>
			<point x="38" y="163"/>
			<point x="38" y="129" type="curve" smooth="yes"/>
			<point x="38" y="47"/>
			<point x="88" y="-16"/>
			<point x="176" y="-16" type="curve" smooth="yes"/>
			<point x="253" y="-16"/>
			<point x="337" y="45"/>
			<point x="370" y="160" type="curve"/>
			<point x="347" y="160" type="line"/>
			<point x="313" y="0" type="line"/>
		</contour>
	</outline>
	<anchor name="ogonek.LC" x="356" y="-30"/>
	<anchor name="top.LC" x="354" y="544"/>
	<guideline x="313" y="0" angle="102"/>
</glyph>
<glyph name="x" format="2">
	<unicode hex="0078"/>
	<advance width="553"/>
	<outline>
		<contour>
			<point x="-53" y="0" type="line"/>
			<point x="135" y="0" type="line"/>
			<point x="300" y="210" type="line"/>
			<point x="227" y="210" type="line"/>
			<point x="321" y="0" type="line"/>
			<point x="495" y="0" type="line"/>
			<point x="326" y="323" type="line"/>
			<point x="331" y="217" type="line"/>
			<point x="594" y="510" type="line"/>
			<point x="406" y="510" type="line"/>
			<point x="260" y="327" type="line"/>
			<point x="312" y="327" type="line"/>
			<point x="232" y="510" type="line"/>
			<point x="56" y="510" type="line"/>
			<point x="224" y="188" type="line"/>
			<point x="233" y="320" type="line"/>
		</contour>
	</outline>
</glyph>
<glyph name="y" format="2">
	<unicode hex="0079"/>
	<advance width="570"/>
	<outline>
		<contour>
			<point x="-27" y="-194" type="line"/>
			<point x="43" y="-194" type="line" smooth="yes"/>
			<point x="161" y="-194"/>
			<point x="208" y="-163"/>
			<point x="282" y="-40" type="curve" smooth="yes"/>
			<point x="609" y="510" type="line"/>
			<point x="444" y="510" type="line"/>
			<point x="228" y="103" type="line"/>
			<point x="267" y="103" type="line"/>
			<point x="215" y="510" type="line"/>
			<point x="50" y="510" type="line"/>
			<point x="148" y="-21" type="line"/>
			<point x="154" y="23" type="line"/>
			<point x="140" y="-8" type="line" smooth="yes"/>
			<point x="123" y="-46"/>
			<point x="104" y="-60"/>
			<point x="69" y="-60" type="curve" smooth="yes"/>
			<point x="1" y="-60" type="line"/>
		</contour>
	</outline>
	<anchor name="top.LC" x="323" y="544"/>
	<guideline x="14" y="0" angle="102"/>
</glyph>
<glyph name="braceleft" format="2">
	<unicode hex="007B"/>
	<advance width="395"/>
	<outline>
		<contour>
			<point x="58" y="25" type="line" smooth="yes"/>
			<point x="54" y="6"/>
			<point x="52" y="-11"/>
			<point x="52" y="-27" type="curve" smooth="yes"/>
			<point x="52" y="-95"/>
			<point x="91" y="-129"/>
			<point x="172" y="-129" type="curve" smooth="yes"/>
			<point x="274" y="-129" type="line"/>
			<point x="301" y="-2" type="line"/>
			<point x="257" y="-2" type="line" smooth="yes"/>
			<point x="230" y="-2"/>
			<point x="218" y="6"/>
			<point x="218" y="28" type="curve" smooth="yes"/>
			<point x="218" y="34"/>
			<point x="219" y="41"/>
			<point x="221" y="50" type="curve" smooth="yes"/>
			<point x="246" y="165" type="line" smooth="yes"/>
			<point x="250" y="184"/>
			<point x="252" y="201"/>
			<point x="252" y="216" type="curve" smooth="yes"/>
			<point x="252" y="284"/>
			<point x="213" y="317"/>
			<point x="131" y="317" type="curve"/>
			<point x="125" y="288" type="line"/>
			<point x="225" y="288"/>
			<point x="282" y="338"/>
			<point x="304" y="442" type="curve" smooth="yes"/>
			<point x="328" y="552" type="line" smooth="yes"/>
			<point x="336" y="591"/>
			<point x="351" y="604"/>
			<point x="386" y="604" type="curve" smooth="yes"/>
			<point x="430" y="604" type="line"/>
			<point x="457" y="731" type="line"/>
			<point x="355" y="731" type="line" smooth="yes"/>
			<point x="256" y="731"/>
			<point x="197" y="681"/>
			<point x="175" y="577" type="curve" smooth="yes"/>
			<point x="141" y="418" type="line" smooth="yes"/>
			<point x="133" y="379"/>
			<point x="118" y="366"/>
			<point x="84" y="366" type="curve" smooth="yes"/>
			<point x="63" y="366" type="line"/>
			<point x="36" y="239" type="line"/>
			<point x="57" y="239" type="line" smooth="yes"/>
			<point x="83" y="239"/>
			<point x="95" y="231"/>
			<point x="95" y="210" type="curve" smooth="yes"/>
			<point x="95" y="204"/>
			<point x="94" y="196"/>
			<point x="92" y="187" type="curve" smooth="yes"/>
		</contour>
	</outline>
</glyph>
<glyph name="bar" format="2">
	<unicode hex="007C"/>
	<advance width="283"/>
	<outline>
		<contour>
			<point x="-17" y="-129" type="line"/>
			<point x="138" y="-129" type="line"/>
			<point x="321" y="736" type="line"/>
			<point x="165" y="736" type="line"/>
		</contour>
	</outline>
</glyph>
<glyph name="asciitilde" format="2">
	<unicode hex="007E"/>
	<advance width="632"/>
	<outline>
		<contour>
			<point x="229" y="476" type="curve" smooth="yes"/>
			<point x="151" y="476"/>
			<point x="90" y="431"/>
			<point x="28" y="325" type="curve"/>
			<point x="125" y="243" type="line"/>
			<point x="153" y="294"/>
			<point x="184" y="321"/>
			<point x="215" y="321" type="curve" smooth="yes"/>
			<point x="240" y="321"/>
			<point x="257" y="300"/>
			<point x="280" y="280" type="curve" smooth="yes"/>
			<point x="304" y="259"/>
			<point x="333" y="238"/>
			<point x="382" y="238" type="curve" smooth="yes"/>
			<point x="460" y="238"/>
			<point x="521" y="283"/>
			<point x="583" y="389" type="curve"/>
			<point x="486" y="471" type="line"/>
			<point x="458" y="420"/>
			<point x="427" y="393"/>
			<point x="396" y="393" type="curve" smooth="yes"/>
			<point x="371" y="393"/>
			<point x="355" y="413"/>
			<point x="331" y="434" type="curve" smooth="yes"/>
			<point x="305" y="456"/>
			<point x="278" y="476"/>
		</contour>
	</outline>
</glyph>
<glyph name="exclamdown" format="2">
	<unicode hex="00A1"/>
	<advance width="285"/>
	<outline>
		<contour>
			<point x="114" y="260" type="line"/>
			<point x="97" y="214"/>
			<point x="43" y="60"/>
			<point x="5" y="-51" type="curve" smooth="yes"/>
			<point x="-19" y="-122"/>
			<point x="-24" y="-142"/>
			<point x="-24" y="-159" type="curve" smooth="yes"/>
			<point x="-24" y="-207"/>
			<point x="6" y="-234"/>
			<point x="57" y="-234" type="curve" smooth="yes"/>
			<point x="89" y="-234"/>
			<point x="116" y="-223"/>
			<point x="134" y="-203" type="curve" smooth="yes"/>
			<point x="154" y="-179"/>
			<point x="162" y="-150"/>
			<point x="168" y="-81" type="curve" smooth="yes"/>
			<point x="179" y="37"/>
			<point x="194" y="225"/>
			<point x="195" y="260" type="curve"/>
		</contour>
		<contour>
			<point x="87" y="398" type="curve" smooth="yes"/>
			<point x="87" y="351"/>
			<point x="122" y="314"/>
			<point x="168" y="314" type="curve" smooth="yes"/>
			<point x="235" y="314"/>
			<point x="285" y="363"/>
			<point x="285" y="430" type="curve" smooth="yes"/>
			<point x="285" y="476"/>
			<point x="249" y="510"/>
			<point x="202" y="510" type="curve" smooth="yes"/>
			<point x="135" y="510"/>
			<point x="87" y="464"/>
		</contour>
	</outline>
	<guideline y="-234"/>
	<guideline y="314"/>
	<guideline y="510"/>
</glyph>
<glyph name="cent" format="2">
	<unicode hex="00A2"/>
	<advance width="623"/>
	<outline>
		<contour>
			<point x="235" y="-116" type="line"/>
			<point x="305" y="-116" type="line"/>
			<point x="462" y="626" type="line"/>
			<point x="392" y="626" type="line"/>
		</contour>
		<contour>
			<point x="450" y="180" type="line"/>
			<point x="421" y="142"/>
			<point x="377" y="119"/>
			<point x="334" y="119" type="curve" smooth="yes"/>
			<point x="274" y="119"/>
			<point x="235" y="163"/>
			<point x="235" y="230" type="curve" smooth="yes"/>
			<point x="235" y="318"/>
			<point x="297" y="388"/>
			<point x="374" y="388" type="curve" smooth="yes"/>
			<point x="423" y="388"/>
			<point x="454" y="368"/>
			<point x="478" y="322" type="curve"/>
			<point x="594" y="411" type="line"/>
			<point x="550" y="483"/>
			<point x="468" y="526"/>
			<point x="376" y="526" type="curve" smooth="yes"/>
			<point x="202" y="526"/>
			<point x="66" y="389"/>
			<point x="66" y="213" type="curve" smooth="yes"/>
			<point x="66" y="79"/>
			<point x="167" y="-17"/>
			<point x="306" y="-17" type="curve" smooth="yes"/>
			<point x="391" y="-17"/>
			<point x="460" y="10"/>
			<point x="523" y="69" type="curve"/>
		</contour>
	</outline>
</glyph>
<glyph name="sterling" format="2">
	<unicode hex="00A3"/>
	<advance width="629"/>
	<outline>
		<contour>
			<point x="3" y="0" type="line"/>
			<point x="526" y="0" type="line"/>
			<point x="555" y="136" type="line"/>
			<point x="31" y="136" type="line"/>
		</contour>
		<contour>
			<point x="72" y="290" type="line"/>
			<point x="473" y="290" type="line"/>
			<point x="500" y="416" type="line"/>
			<point x="99" y="416" type="line"/>
		</contour>
		<contour>
			<point x="80" y="69" type="line"/>
			<point x="243" y="69" type="line"/>
			<point x="332" y="484" type="line" smooth="yes"/>
			<point x="346" y="551"/>
			<point x="379" y="589"/>
			<point x="441" y="589" type="curve" smooth="yes"/>
			<point x="486" y="589"/>
			<point x="518" y="565"/>
			<point x="538" y="516" type="curve"/>
			<point x="661" y="610" type="line"/>
			<point x="629" y="686"/>
			<point x="552" y="731"/>
			<point x="460" y="731" type="curve" smooth="yes"/>
			<point x="303" y="731"/>
			<point x="201" y="636"/>
			<point x="168" y="482" type="curve" smooth="yes"/>
		</contour>
	</outline>
	<guideline y="589"/>
	<guideline y="731"/>
</glyph>
<glyph name="currency" format="2">
	<unicode hex="00A4"/>
	<advance width="560"/>
	<outline>
		<contour>
			<point x="284" y="276" type="curve" smooth="yes"/>
			<point x="241" y="276"/>
			<point x="211" y="306"/>
			<point x="211" y="351" type="curve" smooth="yes"/>
			<point x="211" y="415"/>
			<point x="266" y="474"/>
			<point x="327" y="474" type="curve" smooth="yes"/>
			<point x="370" y="474"/>
			<point x="400" y="444"/>
			<point x="400" y="399" type="curve" smooth="yes"/>
			<point x="400" y="335"/>
			<point x="345" y="276"/>
		</contour>
		<contour>
			<point x="68" y="106" type="line"/>
			<point x="162" y="183" type="line"/>
			<point x="188" y="168"/>
			<point x="224" y="159"/>
			<point x="260" y="159" type="curve" smooth="yes"/>
			<point x="300" y="159"/>
			<point x="342" y="169"/>
			<point x="376" y="188" type="curve"/>
			<point x="437" y="113" type="line"/>
			<point x="515" y="178" type="line"/>
			<point x="458" y="249" type="line"/>
			<point x="506" y="299"/>
			<point x="532" y="359"/>
			<point x="532" y="419" type="curve" smooth="yes"/>
			<point x="532" y="445"/>
			<point x="527" y="469"/>
			<point x="516" y="494" type="curve"/>
			<point x="604" y="566" type="line"/>
			<point x="543" y="644" type="line"/>
			<point x="449" y="567" type="line"/>
			<point x="423" y="582"/>
			<point x="387" y="591"/>
			<point x="351" y="591" type="curve" smooth="yes"/>
			<point x="311" y="591"/>
			<point x="269" y="581"/>
			<point x="235" y="562" type="curve"/>
			<point x="174" y="637" type="line"/>
			<point x="96" y="572" type="line"/>
			<point x="153" y="501" type="line"/>
			<point x="105" y="451"/>
			<point x="79" y="391"/>
			<point x="79" y="331" type="curve" smooth="yes"/>
			<point x="79" y="305"/>
			<point x="84" y="281"/>
			<point x="95" y="256" type="curve"/>
			<point x="7" y="184" type="line"/>
		</contour>
	</outline>
	<guideline y="159"/>
	<guideline y="591"/>
</glyph>
<glyph name="yen" format="2">
	<unicode hex="00A5"/>
	<advance width="635"/>
	<outline>
		<contour>
			<point x="49" y="137" type="line"/>
			<point x="532" y="137" type="line"/>
			<point x="555" y="245" type="line"/>
			<point x="72" y="245" type="line"/>
		</contour>
		<contour>
			<point x="81" y="289" type="line"/>
			<point x="564" y="289" type="line"/>
			<point x="587" y="397" type="line"/>
			<point x="104" y="397" type="line"/>
		</contour>
		<contour>
			<point x="180" y="0" type="line"/>
			<point x="343" y="0" type="line"/>
			<point x="407" y="302" type="line"/>
			<point x="712" y="715" type="line"/>
			<point x="533" y="715" type="line"/>
			<point x="343" y="431" type="line"/>
			<point x="364" y="431" type="line"/>
			<point x="293" y="715" type="line"/>
			<point x="114" y="715" type="line"/>
			<point x="244" y="303" type="line"/>
		</contour>
	</outline>
</glyph>
<glyph name="brokenbar" format="2">
	<unicode hex="00A6"/>
	<advance width="283"/>
	<outline>
		<contour>
			<point x="93" y="390" type="line"/>
			<point x="248" y="390" type="line"/>
			<point x="321" y="736" type="line"/>
			<point x="165" y="736" type="line"/>
		</contour>
		<contour>
			<point x="-17" y="-129" type="line"/>
			<point x="138" y="-129" type="line"/>
			<point x="211" y="217" type="line"/>
			<point x="55" y="217" type="line"/>
		</contour>
	</outline>
</glyph>
<glyph name="logicalnot" format="2">
	<unicode hex="00AC"/>
	<advance width="632"/>
	<outline>
		<contour>
			<point x="102" y="293" type="line"/>
			<point x="417" y="293" type="line"/>
			<point x="384" y="142" type="line"/>
			<point x="513" y="142" type="line"/>
			<point x="574" y="425" type="line"/>
			<point x="130" y="425" type="line"/>
		</contour>
	</outline>
</glyph>
<glyph name="degree" format="2">
	<unicode hex="00B0"/>
	<advance width="481"/>
	<outline>
		<contour>
			<point x="276" y="358" type="curve"/>
			<point x="400" y="358"/>
			<point x="495" y="448"/>
			<point x="495" y="567" type="curve" smooth="yes"/>
			<point x="495" y="660"/>
			<point x="424" y="731"/>
			<point x="329" y="731" type="curve"/>
			<point x="205" y="731"/>
			<point x="110" y="641"/>
			<point x="110" y="522" type="curve" smooth="yes"/>
			<point x="110" y="429"/>
			<point x="181" y="358"/>
		</contour>
		<contour>
			<point x="289" y="468" type="curve" smooth="yes"/>
			<point x="256" y="468"/>
			<point x="232" y="496"/>
			<point x="232" y="533" type="curve" smooth="yes"/>
			<point x="232" y="582"/>
			<point x="268" y="622"/>
			<point x="315" y="622" type="curve" smooth="yes"/>
			<point x="349" y="622"/>
			<point x="373" y="593"/>
			<point x="373" y="556" type="curve" smooth="yes"/>
			<point x="373" y="507"/>
			<point x="336" y="468"/>
		</contour>
	</outline>
	<guideline y="358"/>
	<guideline y="468"/>
	<guideline y="622"/>
	<guideline y="731"/>
</glyph>
<glyph name="micro" format="2">
	<unicode hex="00B5"/>
	<advance width="632"/>
	<outline>
		<contour>
			<point x="-18" y="-194" type="line"/>
			<point x="145" y="-194" type="line"/>
			<point x="206" y="93" type="line"/>
			<point x="124" y="46" type="line"/>
			<point x="133" y="8"/>
			<point x="170" y="-16"/>
			<point x="217" y="-16" type="curve" smooth="yes"/>
			<point x="288" y="-16"/>
			<point x="362" y="45"/>
			<point x="393" y="160" type="curve"/>
			<point x="370" y="160" type="line"/>
			<point x="336" y="0" type="line"/>
			<point x="498" y="0" type="line"/>
			<point x="606" y="510" type="line"/>
			<point x="443" y="510" type="line"/>
			<point x="394" y="278" type="line" smooth="yes"/>
			<point x="372" y="176"/>
			<point x="330" y="119"/>
			<point x="275" y="119" type="curve" smooth="yes"/>
			<point x="246" y="119"/>
			<point x="228" y="141"/>
			<point x="228" y="178" type="curve" smooth="yes"/>
			<point x="228" y="190"/>
			<point x="231" y="212"/>
			<point x="238" y="247" type="curve" smooth="yes"/>
			<point x="293" y="510" type="line"/>
			<point x="130" y="510" type="line"/>
		</contour>
	</outline>
</glyph>
<glyph name="AE" format="2">
	<unicode hex="00C6"/>
	<advance width="1045"/>
	<outline>
		<contour>
			<point x="-28" y="0" type="line"/>
			<point x="164" y="0" type="line"/>
			<point x="706" y="715" type="line"/>
			<point x="537" y="715" type="line"/>
		</contour>
		<contour>
			<point x="221" y="130" type="line"/>
			<point x="577" y="130" type="line"/>
			<point x="608" y="273" type="line"/>
			<point x="252" y="273" type="line"/>
		</contour>
		<contour>
			<point x="468" y="0" type="line"/>
			<point x="964" y="0" type="line"/>
			<point x="994" y="141" type="line"/>
			<point x="663" y="141" type="line"/>
			<point x="756" y="574" type="line"/>
			<point x="1071" y="574" type="line"/>
			<point x="1100" y="715" type="line"/>
			<point x="619" y="715" type="line"/>
		</contour>
		<contour>
			<point x="683" y="289" type="line"/>
			<point x="993" y="289" type="line"/>
			<point x="1023" y="430" type="line"/>
			<point x="713" y="430" type="line"/>
		</contour>
	</outline>
</glyph>
<glyph name="multiply" format="2">
	<unicode hex="00D7"/>
	<advance width="635"/>
	<outline>
		<contour>
			<point x="412" y="139" type="line"/>
			<point x="522" y="230" type="line"/>
			<point x="267" y="576" type="line"/>
			<point x="157" y="485" type="line"/>
		</contour>
		<contour>
			<point x="183" y="135" type="line"/>
			<point x="574" y="481" type="line"/>
			<point x="494" y="580" type="line"/>
			<point x="103" y="234" type="line"/>
		</contour>
	</outline>
	<guideline x="54" y="0" angle="102"/>
	<guideline x="472" y="0" angle="102"/>
</glyph>
<glyph name="Oslash" format="2">
	<unicode hex="00D8"/>
	<advance width="814"/>
	<outline>
		<contour>
			<point x="65" y="-37" type="line"/>
			<point x="872" y="649" type="line"/>
			<point x="793" y="753" type="line"/>
			<point x="-14" y="66" type="line"/>
		</contour>
		<contour>
			<point x="383" y="-16" type="curve" smooth="yes"/>
			<point x="640" y="-16"/>
			<point x="797" y="213"/>
			<point x="797" y="430" type="curve" smooth="yes"/>
			<point x="797" y="607"/>
			<point x="679" y="731"/>
			<point x="478" y="731" type="curve" smooth="yes"/>
			<point x="229" y="731"/>
			<point x="68" y="502"/>
			<point x="68" y="289" type="curve" smooth="yes"/>
			<point x="68" y="107"/>
			<point x="187" y="-16"/>
		</contour>
		<contour>
			<point x="394" y="133" type="curve" smooth="yes"/>
			<point x="288" y="133"/>
			<point x="240" y="196"/>
			<point x="240" y="303" type="curve" smooth="yes"/>
			<point x="240" y="436"/>
			<point x="327" y="582"/>
			<point x="471" y="582" type="curve" smooth="yes"/>
			<point x="572" y="582"/>
			<point x="625" y="519"/>
			<point x="625" y="411" type="curve" smooth="yes"/>
			<point x="625" y="279"/>
			<point x="537" y="133"/>
		</contour>
	</outline>
	<guideline y="133"/>
	<guideline y="582"/>
</glyph>
<glyph name="Thorn" format="2">
	<unicode hex="00DE"/>
	<advance width="650"/>
	<outline>
		<contour>
			<point x="25" y="0" type="line"/>
			<point x="191" y="0" type="line"/>
			<point x="342" y="715" type="line"/>
			<point x="176" y="715" type="line"/>
		</contour>
		<contour>
			<point x="208" y="127" type="line"/>
			<point x="319" y="127" type="line" smooth="yes"/>
			<point x="513" y="127"/>
			<point x="629" y="240"/>
			<point x="629" y="384" type="curve" smooth="yes"/>
			<point x="629" y="499"/>
			<point x="558" y="585"/>
			<point x="402" y="585" type="curve" smooth="yes"/>
			<point x="304" y="585" type="line"/>
			<point x="275" y="444" type="line"/>
			<point x="377" y="444" type="line" smooth="yes"/>
			<point x="435" y="444"/>
			<point x="462" y="413"/>
			<point x="462" y="372" type="curve" smooth="yes"/>
			<point x="462" y="315"/>
			<point x="423" y="268"/>
			<point x="339" y="268" type="curve" smooth="yes"/>
			<point x="238" y="268" type="line"/>
		</contour>
	</outline>
	<guideline x="-5" y="0" angle="102"/>
</glyph>
<glyph name="germandbls" format="2">
	<unicode hex="00DF"/>
	<advance width="641"/>
	<outline>
		<contour>
			<point x="9" y="0" type="line"/>
			<point x="174" y="0" type="line"/>
			<point x="271" y="457" type="line" smooth="yes"/>
			<point x="292" y="555"/>
			<point x="328" y="599"/>
			<point x="386" y="599" type="curve" smooth="yes"/>
			<point x="425" y="599"/>
			<point x="446" y="577"/>
			<point x="446" y="538" type="curve" smooth="yes"/>
			<point x="446" y="482"/>
			<point x="404" y="437"/>
			<point x="352" y="437" type="curve" smooth="yes"/>
			<point x="331" y="437" type="line"/>
			<point x="302" y="303" type="line"/>
			<point x="344" y="303" type="line" smooth="yes"/>
			<point x="399" y="303"/>
			<point x="433" y="271"/>
			<point x="433" y="217" type="curve" smooth="yes"/>
			<point x="433" y="161"/>
			<point x="396" y="116"/>
			<point x="349" y="116" type="curve" smooth="yes"/>
			<point x="325" y="116"/>
			<point x="307" y="123"/>
			<point x="285" y="140" type="curve"/>
			<point x="210" y="27" type="line"/>
			<point x="256" y="-4"/>
			<point x="296" y="-16"/>
			<point x="354" y="-16" type="curve" smooth="yes"/>
			<point x="491" y="-16"/>
			<point x="599" y="93"/>
			<point x="599" y="233" type="curve" smooth="yes"/>
			<point x="599" y="339"/>
			<point x="517" y="412"/>
			<point x="387" y="412" type="curve" smooth="yes"/>
			<point x="344" y="412" type="line"/>
			<point x="329" y="342" type="line"/>
			<point x="332" y="342" type="line" smooth="yes"/>
			<point x="493" y="342"/>
			<point x="614" y="438"/>
			<point x="614" y="567" type="curve" smooth="yes"/>
			<point x="614" y="667"/>
			<point x="532" y="731"/>
			<point x="405" y="731" type="curve" smooth="yes"/>
			<point x="248" y="731"/>
			<point x="142" y="629"/>
			<point x="108" y="467" type="curve" smooth="yes"/>
		</contour>
	</outline>
</glyph>
<glyph name="eth" format="2">
	<unicode hex="00F0"/>
	<advance width="624"/>
	<outline>
		<contour>
			<point x="442" y="240" type="line"/>
			<point x="452" y="285"/>
			<point x="456" y="320"/>
			<point x="456" y="349" type="curve" smooth="yes"/>
			<point x="456" y="434"/>
			<point x="393" y="489"/>
			<point x="299" y="489" type="curve" smooth="yes"/>
			<point x="153" y="489"/>
			<point x="31" y="360"/>
			<point x="31" y="196" type="curve" smooth="yes"/>
			<point x="31" y="67"/>
			<point x="116" y="-16"/>
			<point x="247" y="-16" type="curve" smooth="yes"/>
			<point x="453" y="-16"/>
			<point x="595" y="154"/>
			<point x="595" y="400" type="curve" smooth="yes"/>
			<point x="595" y="571"/>
			<point x="516" y="704"/>
			<point x="367" y="783" type="curve"/>
			<point x="221" y="731" type="line"/>
			<point x="373" y="636"/>
			<point x="443" y="522"/>
			<point x="443" y="370" type="curve" smooth="yes"/>
			<point x="443" y="330"/>
			<point x="438" y="287"/>
			<point x="428" y="240" type="curve"/>
		</contour>
		<contour>
			<point x="278" y="122" type="curve" smooth="yes"/>
			<point x="227" y="122"/>
			<point x="199" y="155"/>
			<point x="199" y="213" type="curve" smooth="yes"/>
			<point x="199" y="294"/>
			<point x="255" y="358"/>
			<point x="325" y="358" type="curve" smooth="yes"/>
			<point x="375" y="358"/>
			<point x="407" y="324"/>
			<point x="407" y="272" type="curve" smooth="yes"/>
			<point x="407" y="189"/>
			<point x="349" y="122"/>
		</contour>
		<contour>
			<point x="269" y="505" type="line"/>
			<point x="629" y="637" type="line"/>
			<point x="593" y="741" type="line"/>
			<point x="231" y="609" type="line"/>
		</contour>
	</outline>
	<guideline y="-16"/>
	<guideline y="489"/>
</glyph>
<glyph name="divide" format="2">
	<unicode hex="00F7"/>
	<advance width="633"/>
	<outline>
		<contour>
			<point x="94" y="291" type="line"/>
			<point x="554" y="291" type="line"/>
			<point x="583" y="425" type="line"/>
			<point x="123" y="425" type="line"/>
		</contour>
		<contour>
			<point x="289" y="541" type="curve" smooth="yes"/>
			<point x="289" y="498"/>
			<point x="319" y="470"/>
			<point x="362" y="470" type="curve" smooth="yes"/>
			<point x="424" y="470"/>
			<point x="473" y="522"/>
			<point x="473" y="574" type="curve" smooth="yes"/>
			<point x="473" y="617"/>
			<point x="443" y="645"/>
			<point x="400" y="645" type="curve" smooth="yes"/>
			<point x="338" y="645"/>
			<point x="289" y="593"/>
		</contour>
		<contour>
			<point x="204" y="142" type="curve" smooth="yes"/>
			<point x="204" y="99"/>
			<point x="234" y="71"/>
			<point x="277" y="71" type="curve" smooth="yes"/>
			<point x="339" y="71"/>
			<point x="388" y="123"/>
			<point x="388" y="175" type="curve" smooth="yes"/>
			<point x="388" y="218"/>
			<point x="358" y="246"/>
			<point x="315" y="246" type="curve" smooth="yes"/>
			<point x="253" y="246"/>
			<point x="204" y="194"/>
		</contour>
	</outline>
</glyph>
<glyph name="thorn" format="2">
	<unicode hex="00FE"/>
	<advance width="643"/>
	<outline>
		<contour>
			<point x="-31" y="-194" type="line"/>
			<point x="132" y="-194" type="line"/>
			<point x="221" y="227" type="line" smooth="yes"/>
			<point x="245" y="339"/>
			<point x="292" y="391"/>
			<point x="352" y="391" type="curve" smooth="yes"/>
			<point x="412" y="391"/>
			<point x="442" y="348"/>
			<point x="442" y="283" type="curve" smooth="yes"/>
			<point x="442" y="190"/>
			<point x="382" y="120"/>
			<point x="312" y="120" type="curve" smooth="yes"/>
			<point x="258" y="120"/>
			<point x="209" y="166"/>
			<point x="209" y="217" type="curve"/>
			<point x="167" y="162" type="line"/>
			<point x="167" y="54"/>
			<point x="237" y="-16"/>
			<point x="343" y="-16" type="curve" smooth="yes"/>
			<point x="488" y="-16"/>
			<point x="610" y="123"/>
			<point x="610" y="308" type="curve" smooth="yes"/>
			<point x="610" y="432"/>
			<point x="545" y="526"/>
			<point x="428" y="526" type="curve" smooth="yes"/>
			<point x="339" y="526"/>
			<point x="257" y="461"/>
			<point x="224" y="350" type="curve"/>
			<point x="246" y="350" type="line"/>
			<point x="324" y="720" type="line"/>
			<point x="161" y="720" type="line"/>
		</contour>
	</outline>
</glyph>
<glyph name="dcroat" format="2">
	<unicode hex="0111"/>
	<advance width="658"/>
	<outline>
		<contour>
			<point x="341" y="539" type="line"/>
			<point x="711" y="539" type="line"/>
			<point x="735" y="653" type="line"/>
			<point x="365" y="653" type="line"/>
		</contour>
		<contour>
			<point x="363" y="0" type="line"/>
			<point x="521" y="0" type="line"/>
			<point x="674" y="720" type="line"/>
			<point x="515" y="720" type="line"/>
			<point x="432" y="329" type="line"/>
			<point x="470" y="329" type="line"/>
			<point x="482" y="431"/>
			<point x="418" y="496"/>
			<point x="298" y="496" type="curve" smooth="yes"/>
			<point x="149" y="496"/>
			<point x="30" y="363"/>
			<point x="30" y="196" type="curve" smooth="yes"/>
			<point x="30" y="66"/>
			<point x="100" y="-16"/>
			<point x="209" y="-16" type="curve" smooth="yes"/>
			<point x="324" y="-16"/>
			<point x="405" y="58"/>
			<point x="433" y="190" type="curve"/>
			<point x="407" y="206" type="line"/>
			<point x="385" y="149"/>
			<point x="340" y="112"/>
			<point x="288" y="112" type="curve" smooth="yes"/>
			<point x="234" y="112"/>
			<point x="199" y="148"/>
			<point x="199" y="204" type="curve" smooth="yes"/>
			<point x="199" y="295"/>
			<point x="257" y="367"/>
			<point x="329" y="367" type="curve" smooth="yes"/>
			<point x="383" y="367"/>
			<point x="414" y="333"/>
			<point x="414" y="273" type="curve" smooth="yes"/>
			<point x="414" y="259"/>
			<point x="413" y="246"/>
			<point x="410" y="231" type="curve" smooth="yes"/>
		</contour>
	</outline>
	<guideline y="112"/>
</glyph>
<glyph name="Hbar" format="2">
	<unicode hex="0126"/>
	<advance width="742"/>
	<outline>
		<contour>
			<point x="78" y="511" type="line"/>
			<point x="772" y="511" type="line"/>
			<point x="800" y="644" type="line"/>
			<point x="106" y="644" type="line"/>
		</contour>
		<contour>
			<point x="447" y="0" type="line"/>
			<point x="613" y="0" type="line"/>
			<point x="764" y="715" type="line"/>
			<point x="598" y="715" type="line"/>
		</contour>
		<contour>
			<point x="25" y="0" type="line"/>
			<point x="191" y="0" type="line"/>
			<point x="342" y="715" type="line"/>
			<point x="176" y="715" type="line"/>
		</contour>
		<contour>
			<point x="243" y="294" type="line"/>
			<point x="518" y="294" type="line"/>
			<point x="548" y="436" type="line"/>
			<point x="273" y="436" type="line"/>
		</contour>
	</outline>
</glyph>
<glyph name="hbar" format="2">
	<unicode hex="0127"/>
	<advance width="612"/>
	<outline>
		<contour>
			<point x="71" y="539" type="line"/>
			<point x="440" y="539" type="line"/>
			<point x="464" y="653" type="line"/>
			<point x="95" y="653" type="line"/>
		</contour>
		<contour>
			<point x="32" y="0" type="line"/>
			<point x="194" y="0" type="line"/>
			<point x="238" y="209" type="line" smooth="yes"/>
			<point x="257" y="300"/>
			<point x="302" y="361"/>
			<point x="356" y="361" type="curve" smooth="yes"/>
			<point x="390" y="361"/>
			<point x="407" y="340"/>
			<point x="407" y="300" type="curve" smooth="yes"/>
			<point x="407" y="285"/>
			<point x="401" y="253"/>
			<point x="397" y="234" type="curve" smooth="yes"/>
			<point x="348" y="0" type="line"/>
			<point x="512" y="0" type="line"/>
			<point x="559" y="225" type="line" smooth="yes"/>
			<point x="564" y="250"/>
			<point x="574" y="299"/>
			<point x="574" y="335" type="curve" smooth="yes"/>
			<point x="574" y="442"/>
			<point x="517" y="496"/>
			<point x="437" y="496" type="curve" smooth="yes"/>
			<point x="351" y="496"/>
			<point x="268" y="426"/>
			<point x="239" y="320" type="curve"/>
			<point x="262" y="320" type="line"/>
			<point x="347" y="720" type="line"/>
			<point x="185" y="720" type="line"/>
		</contour>
	</outline>
</glyph>
<glyph name="kgreenlandic" format="2">
	<unicode hex="0138"/>
	<advance width="609"/>
	<outline>
		<contour>
			<point x="9" y="0" type="line"/>
			<point x="168" y="0" type="line"/>
			<point x="276" y="510" type="line"/>
			<point x="117" y="510" type="line"/>
		</contour>
		<contour>
			<point x="356" y="0" type="line"/>
			<point x="549" y="0" type="line"/>
			<point x="374" y="275" type="line"/>
			<point x="370" y="254" type="line"/>
			<point x="628" y="510" type="line"/>
			<point x="446" y="510" type="line"/>
			<point x="205" y="265" type="line"/>
			<point x="195" y="265" type="line"/>
		</contour>
	</outline>
</glyph>
<glyph name="Lslash" format="2">
	<unicode hex="0141"/>
	<advance width="599"/>
	<outline>
		<contour>
			<point x="48" y="182" type="line"/>
			<point x="455" y="406" type="line"/>
			<point x="414" y="526" type="line"/>
			<point x="7" y="301" type="line"/>
		</contour>
		<contour>
			<point x="54" y="0" type="line"/>
			<point x="516" y="0" type="line"/>
			<point x="546" y="145" type="line"/>
			<point x="251" y="145" type="line"/>
			<point x="372" y="715" type="line"/>
			<point x="206" y="715" type="line"/>
		</contour>
	</outline>
	<guideline x="220" y="0" angle="102"/>
</glyph>
<glyph name="lslash" format="2">
	<unicode hex="0142"/>
	<advance width="378"/>
	<outline>
		<contour>
			<point x="42" y="208" type="line"/>
			<point x="414" y="412" type="line"/>
			<point x="383" y="522" type="line"/>
			<point x="11" y="319" type="line"/>
		</contour>
		<contour>
			<point x="88" y="186" type="line" smooth="yes"/>
			<point x="81" y="154"/>
			<point x="77" y="129"/>
			<point x="77" y="114" type="curve" smooth="yes"/>
			<point x="77" y="33"/>
			<point x="115" y="0"/>
			<point x="208" y="0" type="curve" smooth="yes"/>
			<point x="295" y="0" type="line"/>
			<point x="323" y="134" type="line"/>
			<point x="278" y="134" type="line" smooth="yes"/>
			<point x="257" y="134"/>
			<point x="247" y="142"/>
			<point x="247" y="162" type="curve" smooth="yes"/>
			<point x="247" y="169"/>
			<point x="249" y="178"/>
			<point x="251" y="188" type="curve" smooth="yes"/>
			<point x="364" y="720" type="line"/>
			<point x="201" y="720" type="line"/>
		</contour>
	</outline>
</glyph>
<glyph name="Eng" format="2">
	<unicode hex="014A"/>
	<advance width="760"/>
	<outline>
		<contour>
			<point x="154" y="-146" type="line"/>
			<point x="185" y="-180"/>
			<point x="252" y="-204"/>
			<point x="323" y="-204" type="curve" smooth="yes"/>
			<point x="505" y="-204"/>
			<point x="604" y="-114"/>
			<point x="647" y="88" type="curve" smooth="yes"/>
			<point x="779" y="715" type="line"/>
			<point x="616" y="715" type="line"/>
			<point x="484" y="88" type="line" smooth="yes"/>
			<point x="463" y="-13"/>
			<point x="426" y="-55"/>
			<point x="347" y="-55" type="curve" smooth="yes"/>
			<point x="308" y="-55"/>
			<point x="278" y="-43"/>
			<point x="256" y="-22" type="curve"/>
		</contour>
		<contour>
			<point x="25" y="0" type="line"/>
			<point x="188" y="0" type="line"/>
			<point x="306" y="560" type="line"/>
			<point x="243" y="560" type="line"/>
			<point x="456" y="0" type="line"/>
			<point x="562" y="157" type="line"/>
			<point x="348" y="715" type="line"/>
			<point x="176" y="715" type="line"/>
		</contour>
	</outline>
</glyph>
<glyph name="eng" format="2">
	<unicode hex="014B"/>
	<advance width="596"/>
	<outline>
		<contour>
			<point x="9" y="0" type="line"/>
			<point x="172" y="0" type="line"/>
			<point x="221" y="232" type="line" smooth="yes"/>
			<point x="242" y="332"/>
			<point x="285" y="391"/>
			<point x="341" y="391" type="curve" smooth="yes"/>
			<point x="373" y="391"/>
			<point x="391" y="369"/>
			<point x="391" y="332" type="curve" smooth="yes"/>
			<point x="391" y="319"/>
			<point x="387" y="294"/>
			<point x="381" y="263" type="curve" smooth="yes"/>
			<point x="325" y="-8" type="line" smooth="yes"/>
			<point x="317" y="-47"/>
			<point x="303" y="-60"/>
			<point x="269" y="-60" type="curve" smooth="yes"/>
			<point x="232" y="-60" type="line"/>
			<point x="204" y="-194" type="line"/>
			<point x="302" y="-194" type="line" smooth="yes"/>
			<point x="400" y="-194"/>
			<point x="459" y="-144"/>
			<point x="481" y="-40" type="curve" smooth="yes"/>
			<point x="545" y="263" type="line" smooth="yes"/>
			<point x="554" y="305"/>
			<point x="558" y="338"/>
			<point x="558" y="368" type="curve" smooth="yes"/>
			<point x="558" y="463"/>
			<point x="505" y="526"/>
			<point x="426" y="526" type="curve" smooth="yes"/>
			<point x="353" y="526"/>
			<point x="289" y="485"/>
			<point x="250" y="415" type="curve"/>
			<point x="258" y="412" type="line"/>
			<point x="279" y="510" type="line"/>
			<point x="117" y="510" type="line"/>
		</contour>
	</outline>
</glyph>
<glyph name="OE" format="2">
	<unicode hex="0152"/>
	<advance width="1111"/>
	<outline>
		<contour>
			<point x="349" y="-16" type="curve" smooth="yes"/>
			<point x="535" y="-16"/>
			<point x="696" y="153"/>
			<point x="736" y="358" type="curve" smooth="yes"/>
			<point x="745" y="402"/>
			<point x="747" y="433"/>
			<point x="747" y="458" type="curve" smooth="yes"/>
			<point x="747" y="626"/>
			<point x="635" y="731"/>
			<point x="470" y="731" type="curve" smooth="yes"/>
			<point x="244" y="731"/>
			<point x="60" y="531"/>
			<point x="60" y="287" type="curve" smooth="yes"/>
			<point x="60" y="105"/>
			<point x="176" y="-16"/>
		</contour>
		<contour>
			<point x="379" y="133" type="curve" smooth="yes"/>
			<point x="296" y="133"/>
			<point x="232" y="202"/>
			<point x="232" y="293" type="curve" smooth="yes"/>
			<point x="232" y="460"/>
			<point x="332" y="582"/>
			<point x="469" y="582" type="curve" smooth="yes"/>
			<point x="560" y="582"/>
			<point x="614" y="520"/>
			<point x="614" y="421" type="curve" smooth="yes"/>
			<point x="614" y="399"/>
			<point x="612" y="383"/>
			<point x="607" y="358" type="curve" smooth="yes"/>
			<point x="579" y="226"/>
			<point x="486" y="133"/>
		</contour>
		<contour>
			<point x="533" y="0" type="line"/>
			<point x="1029" y="0" type="line"/>
			<point x="1059" y="141" type="line"/>
			<point x="729" y="141" type="line"/>
			<point x="821" y="574" type="line"/>
			<point x="1136" y="574" type="line"/>
			<point x="1166" y="715" type="line"/>
			<point x="684" y="715" type="line"/>
		</contour>
		<contour>
			<point x="750" y="289" type="line"/>
			<point x="1058" y="289" type="line"/>
			<point x="1088" y="430" type="line"/>
			<point x="780" y="430" type="line"/>
		</contour>
	</outline>
	<guideline y="582"/>
</glyph>
<glyph name="Tbar" format="2">
	<unicode hex="0166"/>
	<advance width="613"/>
	<outline>
		<contour>
			<point x="81" y="288" type="line"/>
			<point x="547" y="288" type="line"/>
			<point x="577" y="431" type="line"/>
			<point x="111" y="431" type="line"/>
		</contour>
		<contour>
			<point x="170" y="0" type="line"/>
			<point x="336" y="0" type="line"/>
			<point x="459" y="582" type="line"/>
			<point x="293" y="582" type="line"/>
		</contour>
		<contour>
			<point x="96" y="572" type="line"/>
			<point x="652" y="572" type="line"/>
			<point x="682" y="715" type="line"/>
			<point x="126" y="715" type="line"/>
		</contour>
	</outline>
</glyph>
<glyph name="tbar" format="2">
	<unicode hex="0167"/>
	<advance width="411"/>
	<outline>
		<contour>
			<point x="61" y="379" type="line"/>
			<point x="396" y="379" type="line"/>
			<point x="424" y="510" type="line"/>
			<point x="89" y="510" type="line"/>
		</contour>
		<contour>
			<point x="24" y="204" type="line"/>
			<point x="357" y="204" type="line"/>
			<point x="382" y="318" type="line"/>
			<point x="49" y="318" type="line"/>
		</contour>
		<contour>
			<point x="92" y="186" type="line" smooth="yes"/>
			<point x="86" y="159"/>
			<point x="83" y="137"/>
			<point x="83" y="119" type="curve" smooth="yes"/>
			<point x="83" y="36"/>
			<point x="132" y="0"/>
			<point x="244" y="0" type="curve"/>
			<point x="320" y="0" type="line"/>
			<point x="348" y="134" type="line"/>
			<point x="300" y="134" type="line" smooth="yes"/>
			<point x="267" y="134"/>
			<point x="254" y="143"/>
			<point x="254" y="167" type="curve" smooth="yes"/>
			<point x="254" y="176"/>
			<point x="255" y="185"/>
			<point x="258" y="200" type="curve" smooth="yes"/>
			<point x="351" y="636" type="line"/>
			<point x="188" y="636" type="line"/>
		</contour>
	</outline>
</glyph>
<glyph name="dotlessj" format="2">
	<unicode hex="0237"/>
	<advance width="275"/>
	<outline>
		<contour>
			<point x="-115" y="-194" type="line"/>
			<point x="-18" y="-194" type="line" smooth="yes"/>
			<point x="80" y="-194"/>
			<point x="137" y="-145"/>
			<point x="159" y="-40" type="curve" smooth="yes"/>
			<point x="276" y="510" type="line"/>
			<point x="113" y="510" type="line"/>
			<point x="3" y="-8" type="line" smooth="yes"/>
			<point x="-5" y="-47"/>
			<point x="-18" y="-60"/>
			<point x="-50" y="-60" type="curve" smooth="yes"/>
			<point x="-87" y="-60" type="line"/>
		</contour>
	</outline>
	<anchor name="top.LC" x="198" y="544"/>
</glyph>
<glyph name="gravecomb" format="2">
	<unicode hex="0300"/>
	<outline>
		<contour>
			<point x="-59" y="587" type="line"/>
			<point x="75" y="587" type="line"/>
			<point x="1" y="761" type="line"/>
			<point x="-174" y="761" type="line"/>
		</contour>
	</outline>
	<anchor name="_top.LC" x="0" y="544"/>
</glyph>
<glyph name="circumflexcomb" format="2">
	<unicode hex="0302"/>
	<outline>
		<contour>
			<point x="-199" y="587" type="line"/>
			<point x="-57" y="587" type="line"/>
			<point x="105" y="745" type="line"/>
			<point x="-14" y="745" type="line"/>
			<point x="82" y="587" type="line"/>
			<point x="227" y="587" type="line"/>
			<point x="142" y="761" type="line"/>
			<point x="-40" y="761" type="line"/>
		</contour>
	</outline>
	<anchor name="_top.LC" x="0" y="544"/>
	<guideline x="-115" y="0" angle="102"/>
</glyph>
<glyph name="tildecomb" format="2">
	<unicode hex="0303"/>
	<outline>
		<contour>
			<point x="-35" y="748" type="curve" smooth="yes"/>
			<point x="-95" y="748"/>
			<point x="-151" y="702"/>
			<point x="-181" y="628" type="curve"/>
			<point x="-91" y="580" type="line"/>
			<point x="-76" y="620"/>
			<point x="-60" y="639"/>
			<point x="-42" y="639" type="curve" smooth="yes"/>
			<point x="-32" y="639"/>
			<point x="-26" y="635"/>
			<point x="-6" y="617" type="curve" smooth="yes"/>
			<point x="28" y="586"/>
			<point x="62" y="570"/>
			<point x="97" y="570" type="curve" smooth="yes"/>
			<point x="157" y="570"/>
			<point x="213" y="616"/>
			<point x="243" y="690" type="curve"/>
			<point x="153" y="738" type="line"/>
			<point x="138" y="698"/>
			<point x="122" y="679"/>
			<point x="104" y="679" type="curve" smooth="yes"/>
			<point x="94" y="679"/>
			<point x="88" y="683"/>
			<point x="68" y="701" type="curve" smooth="yes"/>
			<point x="32" y="733"/>
			<point x="0" y="748"/>
		</contour>
	</outline>
	<anchor name="_top.LC" x="0" y="544"/>
</glyph>
<glyph name="macroncomb" format="2">
	<unicode hex="0304"/>
	<outline>
		<contour>
			<point x="-147" y="592" type="line"/>
			<point x="165" y="592" type="line"/>
			<point x="188" y="703" type="line"/>
			<point x="-124" y="703" type="line"/>
		</contour>
	</outline>
	<anchor name="_top.LC" x="0" y="544"/>
	<guideline x="-116" y="0" angle="102"/>
</glyph>
<glyph name="brevecomb" format="2">
	<unicode hex="0306"/>
	<outline>
		<contour>
			<point x="-134" y="757" type="line"/>
			<point x="-136" y="744"/>
			<point x="-136" y="737"/>
			<point x="-136" y="730" type="curve" smooth="yes"/>
			<point x="-136" y="643"/>
			<point x="-80" y="587"/>
			<point x="9" y="587" type="curve"/>
			<point x="117" y="587"/>
			<point x="190" y="645"/>
			<point x="224" y="757" type="curve"/>
			<point x="105" y="757" type="line"/>
			<point x="89" y="713"/>
			<point x="67" y="694"/>
			<point x="32" y="694" type="curve" smooth="yes"/>
			<point x="1" y="694"/>
			<point x="-15" y="712"/>
			<point x="-15" y="748" type="curve"/>
			<point x="-15" y="751"/>
			<point x="-15" y="754"/>
			<point x="-15" y="757" type="curve"/>
		</contour>
	</outline>
	<anchor name="_top.LC" x="0" y="544"/>
</glyph>
<glyph name="dotaccentcomb" format="2">
	<unicode hex="0307"/>
	<outline>
		<contour>
			<point x="8" y="573" type="curve" smooth="yes"/>
			<point x="72" y="573"/>
			<point x="118" y="619"/>
			<point x="118" y="681" type="curve" smooth="yes"/>
			<point x="118" y="722"/>
			<point x="88" y="750"/>
			<point x="45" y="750" type="curve" smooth="yes"/>
			<point x="-19" y="750"/>
			<point x="-66" y="705"/>
			<point x="-66" y="643" type="curve" smooth="yes"/>
			<point x="-66" y="601"/>
			<point x="-36" y="573"/>
		</contour>
	</outline>
	<anchor name="_top.LC" x="0" y="544"/>
	<guideline x="-115" y="0" angle="102"/>
</glyph>
<glyph name="ringcomb" format="2">
	<unicode hex="030A"/>
	<outline>
		<contour>
			<point x="56" y="814" type="curve" smooth="yes"/>
			<point x="-38" y="814"/>
			<point x="-103" y="749"/>
			<point x="-103" y="655" type="curve" smooth="yes"/>
			<point x="-103" y="600"/>
			<point x="-55" y="554"/>
			<point x="2" y="554" type="curve" smooth="yes"/>
			<point x="96" y="554"/>
			<point x="161" y="619"/>
			<point x="161" y="713" type="curve" smooth="yes"/>
			<point x="161" y="768"/>
			<point x="113" y="814"/>
		</contour>
		<contour>
			<point x="39" y="734" type="curve" smooth="yes"/>
			<point x="62" y="734"/>
			<point x="77" y="718"/>
			<point x="77" y="694" type="curve" smooth="yes"/>
			<point x="77" y="659"/>
			<point x="52" y="634"/>
			<point x="19" y="634" type="curve" smooth="yes"/>
			<point x="-4" y="634"/>
			<point x="-19" y="650"/>
			<point x="-19" y="674" type="curve" smooth="yes"/>
			<point x="-19" y="709"/>
			<point x="6" y="734"/>
		</contour>
	</outline>
	<anchor name="_top.LC" x="0" y="544"/>
	<guideline x="-116" y="0" angle="102"/>
</glyph>
<glyph name="commaturnedabovecomb" format="2">
	<unicode hex="0312"/>
	<outline>
		<contour>
			<point x="43" y="681" type="line"/>
			<point x="48" y="712"/>
			<point x="82" y="760"/>
			<point x="126" y="799" type="curve"/>
			<point x="54" y="799" type="line"/>
			<point x="-25" y="728"/>
			<point x="-59" y="675"/>
			<point x="-59" y="624" type="curve" smooth="yes"/>
			<point x="-59" y="589"/>
			<point x="-32" y="563"/>
			<point x="3" y="563" type="curve" smooth="yes"/>
			<point x="50" y="563"/>
			<point x="86" y="598"/>
			<point x="86" y="644" type="curve" smooth="yes"/>
			<point x="86" y="680"/>
			<point x="63" y="704"/>
			<point x="27" y="704" type="curve"/>
		</contour>
	</outline>
	<anchor name="_top.LC" x="0" y="544"/>
	<guideline x="-114" y="0" angle="102"/>
</glyph>
<glyph name="commaaboverightcomb" format="2">
	<unicode hex="0315"/>
	<outline>
		<contour>
			<point x="-19" y="471" type="line"/>
			<point x="55" y="533"/>
			<point x="104" y="610"/>
			<point x="104" y="664" type="curve" smooth="yes"/>
			<point x="104" y="706"/>
			<point x="81" y="731"/>
			<point x="41" y="731" type="curve" smooth="yes"/>
			<point x="-10" y="731"/>
			<point x="-54" y="688"/>
			<point x="-54" y="636" type="curve" smooth="yes"/>
			<point x="-54" y="600"/>
			<point x="-27" y="575"/>
			<point x="11" y="575" type="curve"/>
			<point x="-7" y="601" type="line"/>
			<point x="-12" y="567"/>
			<point x="-50" y="513"/>
			<point x="-98" y="471" type="curve"/>
		</contour>
	</outline>
	<anchor name="_top_right" x="0" y="540"/>
	<guideline x="-115" y="0" angle="102"/>
</glyph>
<glyph name="dotbelowcomb" format="2">
	<unicode hex="0323"/>
	<outline>
		<contour>
			<point x="-43" y="-256" type="curve" smooth="yes"/>
			<point x="21" y="-256"/>
			<point x="67" y="-210"/>
			<point x="67" y="-148" type="curve" smooth="yes"/>
			<point x="67" y="-107"/>
			<point x="38" y="-79"/>
			<point x="-6" y="-79" type="curve" smooth="yes"/>
			<point x="-70" y="-79"/>
			<point x="-117" y="-124"/>
			<point x="-117" y="-186" type="curve" smooth="yes"/>
			<point x="-117" y="-228"/>
			<point x="-87" y="-256"/>
		</contour>
	</outline>
	<anchor name="_bottom.LC" x="0" y="-50"/>
	<guideline x="11" y="0" angle="102"/>
</glyph>
<glyph name="commabelowcomb" format="2">
	<unicode hex="0326"/>
	<outline>
		<contour>
			<point x="-52" y="-306" type="line"/>
			<point x="24" y="-240"/>
			<point x="61" y="-181"/>
			<point x="61" y="-133" type="curve" smooth="yes"/>
			<point x="61" y="-93"/>
			<point x="31" y="-70"/>
			<point x="-1" y="-70" type="curve" smooth="yes"/>
			<point x="-48" y="-70"/>
			<point x="-84" y="-104"/>
			<point x="-84" y="-152" type="curve" smooth="yes"/>
			<point x="-84" y="-188"/>
			<point x="-59" y="-211"/>
			<point x="-25" y="-211" type="curve"/>
			<point x="-41" y="-188" type="line"/>
			<point x="-46" y="-219"/>
			<point x="-80" y="-267"/>
			<point x="-124" y="-306" type="curve"/>
		</contour>
	</outline>
	<anchor name="_bottom.LC" x="0" y="-50"/>
	<guideline x="11" y="0" angle="102"/>
</glyph>
<glyph name="Germandbls" format="2">
	<unicode hex="1E9E"/>
	<advance width="751"/>
	<outline>
		<contour>
			<point x="15" y="0" type="line"/>
			<point x="182" y="0" type="line"/>
			<point x="269" y="417" type="line" smooth="yes"/>
			<point x="292" y="526"/>
			<point x="354" y="585"/>
			<point x="444" y="585" type="curve" smooth="yes"/>
			<point x="684" y="585" type="line"/>
			<point x="606" y="630" type="line"/>
			<point x="338" y="374" type="line"/>
			<point x="409" y="290" type="line"/>
			<point x="426" y="304"/>
			<point x="452" y="313"/>
			<point x="477" y="313" type="curve" smooth="yes"/>
			<point x="526" y="313"/>
			<point x="558" y="283"/>
			<point x="558" y="236" type="curve" smooth="yes"/>
			<point x="558" y="163"/>
			<point x="511" y="114"/>
			<point x="442" y="114" type="curve" smooth="yes"/>
			<point x="393" y="114"/>
			<point x="365" y="129"/>
			<point x="318" y="179" type="curve"/>
			<point x="224" y="74" type="line"/>
			<point x="266" y="16"/>
			<point x="344" y="-16"/>
			<point x="448" y="-16" type="curve" smooth="yes"/>
			<point x="609" y="-16"/>
			<point x="724" y="99"/>
			<point x="724" y="243" type="curve" smooth="yes"/>
			<point x="724" y="354"/>
			<point x="648" y="426"/>
			<point x="547" y="426" type="curve" smooth="yes"/>
			<point x="526" y="426"/>
			<point x="504" y="423"/>
			<point x="482" y="413" type="curve"/>
			<point x="540" y="395" type="line"/>
			<point x="733" y="583" type="line"/>
			<point x="760" y="715" type="line"/>
			<point x="460" y="715" type="line" smooth="yes"/>
			<point x="262" y="715"/>
			<point x="145" y="617"/>
			<point x="103" y="417" type="curve" smooth="yes"/>
		</contour>
	</outline>
</glyph>
<glyph name="quoteright" format="2">
	<unicode hex="2019"/>
	<advance width="272"/>
	<outline>
		<contour>
			<point x="173" y="437" type="line"/>
			<point x="260" y="517"/>
			<point x="318" y="612"/>
			<point x="318" y="675" type="curve" smooth="yes"/>
			<point x="318" y="725"/>
			<point x="289" y="755"/>
			<point x="242" y="755" type="curve" smooth="yes"/>
			<point x="178" y="755"/>
			<point x="129" y="701"/>
			<point x="129" y="641" type="curve" smooth="yes"/>
			<point x="129" y="597"/>
			<point x="160" y="568"/>
			<point x="207" y="568" type="curve"/>
			<point x="205" y="628" type="line"/>
			<point x="201" y="579"/>
			<point x="158" y="514"/>
			<point x="84" y="437" type="curve"/>
		</contour>
	</outline>
</glyph>
<glyph name="dagger" format="2">
	<unicode hex="2020"/>
	<advance width="460"/>
	<outline>
		<contour>
			<point x="51" y="379" type="line"/>
			<point x="463" y="379" type="line"/>
			<point x="490" y="510" type="line"/>
			<point x="78" y="510" type="line"/>
		</contour>
		<contour>
			<point x="69" y="-129" type="line"/>
			<point x="230" y="-129" type="line"/>
			<point x="413" y="736" type="line"/>
			<point x="252" y="736" type="line"/>
		</contour>
	</outline>
</glyph>
<glyph name="daggerdbl" format="2">
	<unicode hex="2021"/>
	<advance width="459"/>
	<outline>
		<contour>
			<point x="68" y="-129" type="line"/>
			<point x="229" y="-129" type="line"/>
			<point x="412" y="736" type="line"/>
			<point x="251" y="736" type="line"/>
		</contour>
		<contour>
			<point x="49" y="379" type="line"/>
			<point x="462" y="379" type="line"/>
			<point x="489" y="510" type="line"/>
			<point x="77" y="510" type="line"/>
		</contour>
		<contour>
			<point x="-10" y="98" type="line"/>
			<point x="402" y="98" type="line"/>
			<point x="430" y="229" type="line"/>
			<point x="18" y="229" type="line"/>
		</contour>
	</outline>
</glyph>
<glyph name="bullet" format="2">
	<unicode hex="2022"/>
	<advance width="350"/>
	<outline>
		<contour>
			<point x="59" y="249" type="curve" smooth="yes"/>
			<point x="59" y="195"/>
			<point x="99" y="156"/>
			<point x="154" y="156" type="curve" smooth="yes"/>
			<point x="232" y="156"/>
			<point x="300" y="215"/>
			<point x="300" y="299" type="curve" smooth="yes"/>
			<point x="300" y="353"/>
			<point x="260" y="392"/>
			<point x="205" y="392" type="curve" smooth="yes"/>
			<point x="127" y="392"/>
			<point x="59" y="333"/>
		</contour>
	</outline>
</glyph>
<glyph name="guilsinglleft" format="2">
	<unicode hex="2039"/>
	<advance width="364"/>
	<outline>
		<contour>
			<point x="114" y="32" type="line"/>
			<point x="297" y="32" type="line"/>
			<point x="196" y="255" type="line"/>
			<point x="392" y="478" type="line"/>
			<point x="209" y="478" type="line"/>
			<point x="19" y="255" type="line"/>
		</contour>
	</outline>
</glyph>
<glyph name="guilsinglright" format="2">
	<unicode hex="203A"/>
	<advance width="364"/>
	<outline>
		<contour>
			<point x="-28" y="32" type="line"/>
			<point x="155" y="32" type="line"/>
			<point x="345" y="255" type="line"/>
			<point x="250" y="478" type="line"/>
			<point x="67" y="478" type="line"/>
			<point x="168" y="255" type="line"/>
		</contour>
	</outline>
</glyph>
<glyph name="Euro" format="2">
	<unicode hex="20AC"/>
	<advance width="628"/>
	<outline>
		<contour>
			<point x="493" y="191" type="line"/>
			<point x="452" y="147"/>
			<point x="405" y="123"/>
			<point x="359" y="123" type="curve" smooth="yes"/>
			<point x="289" y="123"/>
			<point x="249" y="175"/>
			<point x="249" y="265" type="curve" smooth="yes"/>
			<point x="249" y="446"/>
			<point x="344" y="592"/>
			<point x="461" y="592" type="curve" smooth="yes"/>
			<point x="508" y="592"/>
			<point x="547" y="568"/>
			<point x="566" y="526" type="curve"/>
			<point x="682" y="626" type="line"/>
			<point x="645" y="693"/>
			<point x="574" y="731"/>
			<point x="486" y="731" type="curve" smooth="yes"/>
			<point x="263" y="731"/>
			<point x="87" y="514"/>
			<point x="87" y="239" type="curve" smooth="yes"/>
			<point x="87" y="77"/>
			<point x="175" y="-16"/>
			<point x="329" y="-16" type="curve" smooth="yes"/>
			<point x="423" y="-16"/>
			<point x="511" y="23"/>
			<point x="575" y="82" type="curve"/>
		</contour>
		<contour>
			<point x="18" y="228" type="line"/>
			<point x="404" y="228" type="line"/>
			<point x="447" y="336" type="line"/>
			<point x="40" y="336" type="line"/>
		</contour>
		<contour>
			<point x="49" y="380" type="line"/>
			<point x="462" y="380" type="line"/>
			<point x="505" y="488" type="line"/>
			<point x="72" y="488" type="line"/>
		</contour>
	</outline>
	<guideline y="-16"/>
	<guideline y="592"/>
</glyph>
<glyph name="liraturkish" format="2">
	<unicode hex="20BA"/>
	<advance width="627"/>
	<outline>
		<contour>
			<point x="51" y="0" type="line"/>
			<point x="242" y="0" type="line" smooth="yes"/>
			<point x="446" y="0"/>
			<point x="559" y="94"/>
			<point x="602" y="308" type="curve" smooth="yes"/>
			<point x="604" y="318" type="line"/>
			<point x="443" y="326" type="line"/>
			<point x="436" y="294" type="line" smooth="yes"/>
			<point x="414" y="192"/>
			<point x="354" y="136"/>
			<point x="265" y="136" type="curve" smooth="yes"/>
			<point x="245" y="136" type="line"/>
			<point x="368" y="715" type="line"/>
			<point x="202" y="715" type="line"/>
		</contour>
		<contour>
			<point x="19" y="190" type="line"/>
			<point x="416" y="353" type="line"/>
			<point x="440" y="466" type="line"/>
			<point x="42" y="303" type="line"/>
		</contour>
		<contour>
			<point x="52" y="350" type="line"/>
			<point x="450" y="513" type="line"/>
			<point x="474" y="626" type="line"/>
			<point x="76" y="463" type="line"/>
		</contour>
	</outline>
</glyph>
<glyph name="ruble" format="2">
	<unicode hex="20BD"/>
	<advance width="634"/>
	<outline>
		<contour>
			<point x="58" y="0" type="line"/>
			<point x="224" y="0" type="line"/>
			<point x="349" y="589" type="line"/>
			<point x="415" y="589" type="line" smooth="yes"/>
			<point x="459" y="589"/>
			<point x="486" y="564"/>
			<point x="486" y="521" type="curve" smooth="yes"/>
			<point x="486" y="454"/>
			<point x="437" y="401"/>
			<point x="375" y="401" type="curve" smooth="yes"/>
			<point x="69" y="401" type="line"/>
			<point x="42" y="275" type="line"/>
			<point x="344" y="275" type="line" smooth="yes"/>
			<point x="550" y="275"/>
			<point x="656" y="384"/>
			<point x="656" y="545" type="curve" smooth="yes"/>
			<point x="656" y="653"/>
			<point x="575" y="715"/>
			<point x="437" y="715" type="curve" smooth="yes"/>
			<point x="209" y="715" type="line"/>
		</contour>
		<contour>
			<point x="5" y="95" type="line"/>
			<point x="417" y="95" type="line"/>
			<point x="443" y="221" type="line"/>
			<point x="30" y="221" type="line"/>
		</contour>
	</outline>
</glyph>
<glyph name="trademark" format="2">
	<unicode hex="2122"/>
	<advance width="858"/>
	<outline>
		<contour>
			<point x="154" y="301" type="line"/>
			<point x="280" y="301" type="line"/>
			<point x="280" y="617" type="line"/>
			<point x="154" y="617" type="line"/>
		</contour>
		<contour>
			<point x="50" y="610" type="line"/>
			<point x="384" y="610" type="line"/>
			<point x="384" y="715" type="line"/>
			<point x="50" y="715" type="line"/>
		</contour>
		<contour>
			<point x="417" y="301" type="line"/>
			<point x="539" y="301" type="line"/>
			<point x="539" y="684" type="line"/>
			<point x="469" y="681" type="line"/>
			<point x="607" y="364" type="line"/>
			<point x="697" y="364" type="line"/>
			<point x="836" y="681" type="line"/>
			<point x="764" y="684" type="line"/>
			<point x="764" y="301" type="line"/>
			<point x="889" y="301" type="line"/>
			<point x="889" y="715" type="line"/>
			<point x="746" y="715" type="line"/>
			<point x="636" y="453" type="line"/>
			<point x="671" y="453" type="line"/>
			<point x="560" y="715" type="line"/>
			<point x="417" y="715" type="line"/>
		</contour>
	</outline>
</glyph>
<glyph name="upTipLeftArrow" format="2">
	<unicode hex="21B0"/>
	<advance width="931"/>
	<outline>
		<contour>
			<point x="752" y="0" type="line"/>
			<point x="826" y="0" type="line"/>
			<point x="826" y="282" type="line"/>
			<point x="188" y="282" type="line"/>
			<point x="188" y="210" type="line"/>
			<point x="752" y="210" type="line"/>
		</contour>
		<contour>
			<point x="351" y="0" type="line"/>
			<point x="455" y="0" type="line"/>
			<point x="203" y="246" type="line"/>
			<point x="455" y="492" type="line"/>
			<point x="351" y="492" type="line"/>
			<point x="95" y="246" type="line"/>
		</contour>
	</outline>
</glyph>
<glyph name="minus" format="2">
	<unicode hex="2212"/>
	<advance width="632"/>
	<outline>
		<contour>
			<point x="102" y="292" type="line"/>
			<point x="545" y="292" type="line"/>
			<point x="574" y="424" type="line"/>
			<point x="131" y="424" type="line"/>
		</contour>
	</outline>
</glyph>
<glyph name="rightTipUpArrow" format="2">
	<unicode hex="2B0F"/>
	<advance width="752"/>
	<outline>
		<contour>
			<point x="135" y="0" type="line"/>
			<point x="448" y="0" type="line"/>
			<point x="448" y="643" type="line"/>
			<point x="374" y="643" type="line"/>
			<point x="374" y="72" type="line"/>
			<point x="135" y="72" type="line"/>
		</contour>
		<contour>
			<point x="135" y="374" type="line"/>
			<point x="411" y="631" type="line"/>
			<point x="687" y="374" type="line"/>
			<point x="687" y="475" type="line"/>
			<point x="411" y="731" type="line"/>
			<point x="135" y="475" type="line"/>
		</contour>
	</outline>
</glyph>
<glyph name="acutecomb.cap" format="2">
	<outline>
		<contour>
			<point x="-97" y="789" type="line"/>
			<point x="57" y="789" type="line"/>
			<point x="258" y="933" type="line"/>
			<point x="64" y="933" type="line"/>
		</contour>
	</outline>
	<anchor name="_top.UC" x="0" y="750"/>
</glyph>
<glyph name="brevecomb.cap" format="2">
	<outline>
		<contour>
			<point x="-122" y="955" type="line"/>
			<point x="-123" y="948"/>
			<point x="-123" y="941"/>
			<point x="-123" y="935" type="curve" smooth="yes"/>
			<point x="-123" y="847"/>
			<point x="-61" y="795"/>
			<point x="34" y="795" type="curve" smooth="yes"/>
			<point x="157" y="795"/>
			<point x="230" y="856"/>
			<point x="258" y="955" type="curve"/>
			<point x="132" y="955" type="line"/>
			<point x="119" y="920"/>
			<point x="96" y="897"/>
			<point x="56" y="897" type="curve" smooth="yes"/>
			<point x="25" y="897"/>
			<point x="4" y="919"/>
			<point x="4" y="953" type="curve" smooth="yes"/>
			<point x="4" y="955" type="line"/>
		</contour>
	</outline>
	<anchor name="_top.UC" x="0" y="750"/>
	<guideline x="-159" y="0" angle="102"/>
</glyph>
<glyph name="cedillacomb.cap" format="2">
	<outline>
		<contour>
			<point x="-173" y="-224" type="line"/>
			<point x="-141" y="-253"/>
			<point x="-104" y="-265"/>
			<point x="-49" y="-265" type="curve" smooth="yes"/>
			<point x="49" y="-265"/>
			<point x="123" y="-207"/>
			<point x="123" y="-131" type="curve" smooth="yes"/>
			<point x="123" y="-72"/>
			<point x="74" y="-35"/>
			<point x="-4" y="-35" type="curve"/>
			<point x="7" y="-97" type="line"/>
			<point x="59" y="10" type="line"/>
			<point x="-25" y="10" type="line"/>
			<point x="-87" y="-116" type="line"/>
			<point x="-66" y="-113"/>
			<point x="-44" y="-111"/>
			<point x="-36" y="-111" type="curve" smooth="yes"/>
			<point x="-3" y="-111"/>
			<point x="15" y="-121"/>
			<point x="15" y="-140" type="curve" smooth="yes"/>
			<point x="15" y="-162"/>
			<point x="-6" y="-175"/>
			<point x="-41" y="-175" type="curve" smooth="yes"/>
			<point x="-69" y="-175"/>
			<point x="-92" y="-167"/>
			<point x="-111" y="-150" type="curve"/>
		</contour>
	</outline>
	<anchor name="_bottom.UC" x="0" y="-50"/>
</glyph>
<glyph name="commaaboverightcomb.short" format="2">
	<outline>
		<contour>
			<point x="37" y="552" type="line"/>
			<point x="107" y="606"/>
			<point x="146" y="662"/>
			<point x="146" y="707" type="curve" smooth="yes"/>
			<point x="146" y="745"/>
			<point x="123" y="766"/>
			<point x="84" y="766" type="curve" smooth="yes"/>
			<point x="39" y="766"/>
			<point x="1" y="729"/>
			<point x="1" y="684" type="curve" smooth="yes"/>
			<point x="1" y="652"/>
			<point x="26" y="628"/>
			<point x="60" y="628" type="curve"/>
			<point x="45" y="658" type="line"/>
			<point x="35" y="626"/>
			<point x="2" y="583"/>
			<point x="-36" y="552" type="curve"/>
		</contour>
	</outline>
	<anchor name="_top_right.LC.short" x="0" y="540"/>
</glyph>
<glyph name="dieresiscomb.cap" format="2">
	<outline>
		<contour>
			<point x="-106" y="777" type="curve" smooth="yes"/>
			<point x="-42" y="777"/>
			<point x="4" y="823"/>
			<point x="4" y="885" type="curve" smooth="yes"/>
			<point x="4" y="925"/>
			<point x="-25" y="954"/>
			<point x="-69" y="954" type="curve" smooth="yes"/>
			<point x="-134" y="954"/>
			<point x="-180" y="908"/>
			<point x="-180" y="847" type="curve" smooth="yes"/>
			<point x="-180" y="806"/>
			<point x="-151" y="777"/>
		</contour>
		<contour>
			<point x="128" y="777" type="curve" smooth="yes"/>
			<point x="192" y="777"/>
			<point x="238" y="823"/>
			<point x="238" y="885" type="curve" smooth="yes"/>
			<point x="238" y="925"/>
			<point x="209" y="954"/>
			<point x="165" y="954" type="curve" smooth="yes"/>
			<point x="100" y="954"/>
			<point x="54" y="908"/>
			<point x="54" y="847" type="curve" smooth="yes"/>
			<point x="54" y="806"/>
			<point x="83" y="777"/>
		</contour>
	</outline>
	<anchor name="_top.UC" x="0" y="750"/>
	<guideline x="-159" y="0" angle="102"/>
</glyph>
<glyph name="dieresiscomb.narrow" format="2">
	<outline>
		<contour>
			<point x="-81" y="582" type="curve" smooth="yes"/>
			<point x="-19" y="582"/>
			<point x="19" y="628"/>
			<point x="19" y="679" type="curve" smooth="yes"/>
			<point x="19" y="715"/>
			<point x="-8" y="741"/>
			<point x="-47" y="741" type="curve" smooth="yes"/>
			<point x="-110" y="741"/>
			<point x="-148" y="695"/>
			<point x="-148" y="645" type="curve" smooth="yes"/>
			<point x="-148" y="608"/>
			<point x="-121" y="582"/>
		</contour>
		<contour>
			<point x="97" y="582" type="curve" smooth="yes"/>
			<point x="159" y="582"/>
			<point x="197" y="628"/>
			<point x="197" y="679" type="curve" smooth="yes"/>
			<point x="197" y="715"/>
			<point x="170" y="741"/>
			<point x="131" y="741" type="curve" smooth="yes"/>
			<point x="68" y="741"/>
			<point x="30" y="695"/>
			<point x="30" y="645" type="curve" smooth="yes"/>
			<point x="30" y="608"/>
			<point x="57" y="582"/>
		</contour>
	</outline>
	<anchor name="_top.LC" x="0" y="544"/>
	<guideline x="-116" y="0" angle="102"/>
</glyph>
<glyph name="dotaccentcomb.cap" format="2">
	<outline>
		<contour>
			<point x="5" y="777" type="curve" smooth="yes"/>
			<point x="72" y="777"/>
			<point x="116" y="825"/>
			<point x="116" y="885" type="curve" smooth="yes"/>
			<point x="116" y="926"/>
			<point x="86" y="954"/>
			<point x="43" y="954" type="curve" smooth="yes"/>
			<point x="-23" y="954"/>
			<point x="-68" y="907"/>
			<point x="-68" y="848" type="curve" smooth="yes"/>
			<point x="-68" y="805"/>
			<point x="-38" y="777"/>
		</contour>
	</outline>
	<anchor name="_top.UC" x="0" y="750"/>
	<guideline x="-160" y="0" angle="102"/>
</glyph>
<glyph name="dotbelowcomb.cap" format="2">
	<outline>
		<contour>
			<point x="-123" y="-184" type="curve" smooth="yes"/>
			<point x="-123" y="-226"/>
			<point x="-94" y="-254"/>
			<point x="-50" y="-254" type="curve" smooth="yes"/>
			<point x="14" y="-254"/>
			<point x="61" y="-209"/>
			<point x="61" y="-146" type="curve" smooth="yes"/>
			<point x="61" y="-105"/>
			<point x="32" y="-77"/>
			<point x="-12" y="-77" type="curve" smooth="yes"/>
			<point x="-76" y="-77"/>
			<point x="-123" y="-122"/>
		</contour>
	</outline>
	<anchor name="_bottom.UC" x="0" y="-50"/>
	<guideline x="11" y="0" angle="102"/>
</glyph>
<glyph name="eight.dnom" format="2">
	<advance width="379"/>
	<outline>
		<contour>
			<point x="-10" y="92" type="curve" smooth="yes"/>
			<point x="-10" y="31"/>
			<point x="48" y="-9"/>
			<point x="135" y="-9" type="curve" smooth="yes"/>
			<point x="243" y="-9"/>
			<point x="330" y="56"/>
			<point x="330" y="136" type="curve" smooth="yes"/>
			<point x="330" y="195"/>
			<point x="272" y="234"/>
			<point x="185" y="234" type="curve" smooth="yes"/>
			<point x="74" y="234"/>
			<point x="-10" y="173"/>
		</contour>
		<contour>
			<point x="48" y="288" type="curve" smooth="yes"/>
			<point x="48" y="236"/>
			<point x="100" y="201"/>
			<point x="178" y="201" type="curve" smooth="yes"/>
			<point x="275" y="201"/>
			<point x="352" y="256"/>
			<point x="352" y="325" type="curve" smooth="yes"/>
			<point x="352" y="381"/>
			<point x="300" y="417"/>
			<point x="220" y="417" type="curve" smooth="yes"/>
			<point x="126" y="417"/>
			<point x="48" y="359"/>
		</contour>
		<contour>
			<point x="112" y="118" type="curve" smooth="yes"/>
			<point x="112" y="148"/>
			<point x="139" y="172"/>
			<point x="172" y="172" type="curve" smooth="yes"/>
			<point x="197" y="172"/>
			<point x="213" y="159"/>
			<point x="213" y="138" type="curve" smooth="yes"/>
			<point x="213" y="107"/>
			<point x="187" y="83"/>
			<point x="153" y="83" type="curve" smooth="yes"/>
			<point x="128" y="83"/>
			<point x="112" y="97"/>
		</contour>
		<contour>
			<point x="159" y="277" type="curve" smooth="yes"/>
			<point x="159" y="305"/>
			<point x="180" y="327"/>
			<point x="205" y="327" type="curve" smooth="yes"/>
			<point x="224" y="327"/>
			<point x="234" y="317"/>
			<point x="234" y="298" type="curve" smooth="yes"/>
			<point x="234" y="272"/>
			<point x="212" y="249"/>
			<point x="188" y="249" type="curve" smooth="yes"/>
			<point x="170" y="249"/>
			<point x="159" y="259"/>
		</contour>
	</outline>
	<guideline y="-9"/>
	<guideline y="83"/>
	<guideline y="172"/>
	<guideline y="249"/>
	<guideline y="327"/>
	<guideline y="417"/>
</glyph>
<glyph name="exclamdown.case" format="2">
	<advance width="285"/>
	<outline>
		<contour>
			<point x="152" y="465" type="line"/>
			<point x="135" y="419"/>
			<point x="81" y="265"/>
			<point x="43" y="154" type="curve" smooth="yes"/>
			<point x="19" y="83"/>
			<point x="14" y="63"/>
			<point x="14" y="46" type="curve" smooth="yes"/>
			<point x="14" y="-2"/>
			<point x="44" y="-29"/>
			<point x="95" y="-29" type="curve" smooth="yes"/>
			<point x="127" y="-29"/>
			<point x="154" y="-18"/>
			<point x="172" y="2" type="curve" smooth="yes"/>
			<point x="192" y="26"/>
			<point x="200" y="55"/>
			<point x="206" y="124" type="curve" smooth="yes"/>
			<point x="217" y="242"/>
			<point x="232" y="430"/>
			<point x="233" y="465" type="curve"/>
		</contour>
		<contour>
			<point x="125" y="603" type="curve" smooth="yes"/>
			<point x="125" y="556"/>
			<point x="160" y="519"/>
			<point x="206" y="519" type="curve" smooth="yes"/>
			<point x="273" y="519"/>
			<point x="323" y="568"/>
			<point x="323" y="635" type="curve" smooth="yes"/>
			<point x="323" y="681"/>
			<point x="287" y="715"/>
			<point x="240" y="715" type="curve" smooth="yes"/>
			<point x="173" y="715"/>
			<point x="125" y="669"/>
		</contour>
	</outline>
</glyph>
<glyph name="five.dnom" format="2">
	<advance width="363"/>
	<outline>
		<contour>
			<point x="15" y="172" type="line"/>
			<point x="114" y="172" type="line"/>
			<point x="132" y="186"/>
			<point x="148" y="192"/>
			<point x="167" y="192" type="curve" smooth="yes"/>
			<point x="192" y="192"/>
			<point x="206" y="176"/>
			<point x="206" y="149" type="curve" smooth="yes"/>
			<point x="206" y="110"/>
			<point x="177" y="85"/>
			<point x="133" y="85" type="curve" smooth="yes"/>
			<point x="100" y="85"/>
			<point x="73" y="99"/>
			<point x="46" y="131" type="curve"/>
			<point x="-25" y="56" type="line"/>
			<point x="11" y="12"/>
			<point x="61" y="-9"/>
			<point x="131" y="-9" type="curve" smooth="yes"/>
			<point x="242" y="-9"/>
			<point x="323" y="69"/>
			<point x="323" y="174" type="curve" smooth="yes"/>
			<point x="323" y="240"/>
			<point x="279" y="282"/>
			<point x="211" y="282" type="curve" smooth="yes"/>
			<point x="182" y="282"/>
			<point x="153" y="270"/>
			<point x="128" y="249" type="curve"/>
			<point x="138" y="242" type="line"/>
			<point x="169" y="336" type="line"/>
			<point x="143" y="317" type="line"/>
			<point x="336" y="317" type="line"/>
			<point x="356" y="408" type="line"/>
			<point x="94" y="408" type="line"/>
		</contour>
	</outline>
	<guideline y="-9"/>
	<guideline y="85"/>
</glyph>
<glyph name="four.dnom" format="2">
	<advance width="400"/>
	<outline>
		<contour>
			<point x="158" y="0" type="line"/>
			<point x="273" y="0" type="line"/>
			<point x="360" y="408" type="line"/>
			<point x="245" y="408" type="line"/>
			<point x="1" y="154" type="line"/>
			<point x="-17" y="67" type="line"/>
			<point x="334" y="67" type="line"/>
			<point x="353" y="154" type="line"/>
			<point x="83" y="154" type="line"/>
			<point x="90" y="139" type="line"/>
			<point x="231" y="298" type="line"/>
			<point x="222" y="303" type="line"/>
		</contour>
	</outline>
</glyph>
<glyph name="gravecomb.cap" format="2">
	<outline>
		<contour>
			<point x="-68" y="789" type="line"/>
			<point x="86" y="789" type="line"/>
			<point x="-15" y="933" type="line"/>
			<point x="-209" y="933" type="line"/>
		</contour>
	</outline>
	<anchor name="_top.UC" x="0" y="750"/>
</glyph>
<glyph name="hungarumlautcomb.cap" format="2">
	<outline>
		<contour>
			<point x="-192" y="789" type="line"/>
			<point x="-39" y="789" type="line"/>
			<point x="139" y="953" type="line"/>
			<point x="-46" y="953" type="line"/>
		</contour>
		<contour>
			<point x="9" y="789" type="line"/>
			<point x="163" y="789" type="line"/>
			<point x="371" y="953" type="line"/>
			<point x="187" y="953" type="line"/>
		</contour>
	</outline>
	<anchor name="_top.UC" x="0" y="750"/>
</glyph>
<glyph name="macroncomb.cap" format="2">
	<outline>
		<contour>
			<point x="-159" y="796" type="line"/>
			<point x="175" y="796" type="line"/>
			<point x="199" y="910" type="line"/>
			<point x="-135" y="910" type="line"/>
		</contour>
	</outline>
	<anchor name="_top.UC" x="0" y="750"/>
	<guideline x="-160" y="0" angle="102"/>
</glyph>
<glyph name="macroncomb.narrow" format="2">
	<outline>
		<contour>
			<point x="-131" y="592" type="line"/>
			<point x="149" y="592" type="line"/>
			<point x="172" y="703" type="line"/>
			<point x="-108" y="703" type="line"/>
		</contour>
	</outline>
	<anchor name="_top.LC" x="0" y="544"/>
	<guideline x="-115" y="0" angle="102"/>
</glyph>
<glyph name="nine.dnom" format="2">
	<advance width="373"/>
	<outline>
		<contour>
			<point x="145" y="0" type="line"/>
			<point x="299" y="119"/>
			<point x="357" y="200"/>
			<point x="357" y="295" type="curve" smooth="yes"/>
			<point x="357" y="369"/>
			<point x="304" y="417"/>
			<point x="222" y="417" type="curve" smooth="yes"/>
			<point x="101" y="417"/>
			<point x="18" y="343"/>
			<point x="18" y="236" type="curve" smooth="yes"/>
			<point x="18" y="173"/>
			<point x="61" y="132"/>
			<point x="128" y="132" type="curve" smooth="yes"/>
			<point x="161" y="132"/>
			<point x="182" y="142"/>
			<point x="207" y="169" type="curve"/>
			<point x="200" y="170" type="line"/>
			<point x="167" y="127"/>
			<point x="111" y="79"/>
			<point x="2" y="0" type="curve"/>
		</contour>
		<contour>
			<point x="133" y="259" type="curve" smooth="yes"/>
			<point x="133" y="295"/>
			<point x="163" y="325"/>
			<point x="201" y="325" type="curve" smooth="yes"/>
			<point x="228" y="325"/>
			<point x="245" y="308"/>
			<point x="245" y="283" type="curve" smooth="yes"/>
			<point x="245" y="249"/>
			<point x="214" y="218"/>
			<point x="179" y="218" type="curve" smooth="yes"/>
			<point x="151" y="218"/>
			<point x="133" y="234"/>
		</contour>
	</outline>
	<guideline y="218"/>
	<guideline y="325"/>
	<guideline y="417"/>
</glyph>
<glyph name="ogonekcomb.round" format="2">
	<outline>
		<contour>
			<point x="124" y="-148" type="line"/>
			<point x="114" y="-150"/>
			<point x="103" y="-151"/>
			<point x="95" y="-151" type="curve" smooth="yes"/>
			<point x="62" y="-151"/>
			<point x="45" y="-137"/>
			<point x="45" y="-110" type="curve" smooth="yes"/>
			<point x="45" y="-64"/>
			<point x="88" y="-12"/>
			<point x="162" y="33" type="curve"/>
			<point x="114" y="55" type="line"/>
			<point x="-25" y="-9"/>
			<point x="-85" y="-72"/>
			<point x="-85" y="-155" type="curve" smooth="yes"/>
			<point x="-85" y="-219"/>
			<point x="-35" y="-255"/>
			<point x="54" y="-255" type="curve" smooth="yes"/>
			<point x="72" y="-255"/>
			<point x="86" y="-254"/>
			<point x="102" y="-251" type="curve"/>
		</contour>
	</outline>
	<anchor name="_ogonek.LC.round" x="0" y="-30"/>
</glyph>
<glyph name="one.dnom" format="2">
	<advance width="351"/>
	<outline>
		<contour>
			<point x="102" y="0" type="line"/>
			<point x="224" y="0" type="line"/>
			<point x="311" y="411" type="line"/>
			<point x="217" y="411" type="line"/>
			<point x="77" y="344" type="line"/>
			<point x="54" y="237" type="line"/>
			<point x="165" y="297" type="line"/>
		</contour>
	</outline>
</glyph>
<glyph name="seven.dnom" format="2">
	<advance width="349"/>
	<outline>
		<contour>
			<point x="37" y="317" type="line"/>
			<point x="246" y="317" type="line"/>
			<point x="236" y="337" type="line"/>
			<point x="-26" y="0" type="line"/>
			<point x="97" y="0" type="line"/>
			<point x="340" y="317" type="line"/>
			<point x="359" y="408" type="line"/>
			<point x="56" y="408" type="line"/>
		</contour>
	</outline>
</glyph>
<glyph name="six.dnom" format="2">
	<advance width="373"/>
	<outline>
		<contour>
			<point x="207" y="408" type="line"/>
			<point x="52" y="288"/>
			<point x="-5" y="208"/>
			<point x="-5" y="114" type="curve" smooth="yes"/>
			<point x="-5" y="39"/>
			<point x="48" y="-9"/>
			<point x="131" y="-9" type="curve" smooth="yes"/>
			<point x="251" y="-9"/>
			<point x="334" y="65"/>
			<point x="334" y="172" type="curve" smooth="yes"/>
			<point x="334" y="235"/>
			<point x="291" y="276"/>
			<point x="224" y="276" type="curve" smooth="yes"/>
			<point x="192" y="276"/>
			<point x="169" y="265"/>
			<point x="146" y="239" type="curve"/>
			<point x="153" y="238" type="line"/>
			<point x="185" y="280"/>
			<point x="238" y="327"/>
			<point x="350" y="408" type="curve"/>
		</contour>
		<contour>
			<point x="174" y="190" type="curve" smooth="yes"/>
			<point x="201" y="190"/>
			<point x="219" y="173"/>
			<point x="219" y="148" type="curve" smooth="yes"/>
			<point x="219" y="113"/>
			<point x="188" y="83"/>
			<point x="152" y="83" type="curve" smooth="yes"/>
			<point x="125" y="83"/>
			<point x="107" y="100"/>
			<point x="107" y="125" type="curve" smooth="yes"/>
			<point x="107" y="160"/>
			<point x="138" y="190"/>
		</contour>
	</outline>
	<guideline y="-9"/>
	<guideline y="83"/>
	<guideline y="190"/>
</glyph>
<glyph name="tildecomb.narrow" format="2">
	<outline>
		<contour>
			<point x="38" y="707" type="curve" smooth="yes"/>
			<point x="4" y="738"/>
			<point x="-16" y="748"/>
			<point x="-42" y="748" type="curve" smooth="yes"/>
			<point x="-94" y="748"/>
			<point x="-144" y="702"/>
			<point x="-173" y="626" type="curve"/>
			<point x="-97" y="579" type="line"/>
			<point x="-81" y="621"/>
			<point x="-69" y="639"/>
			<point x="-55" y="639" type="curve" smooth="yes"/>
			<point x="-48" y="639"/>
			<point x="-44" y="637"/>
			<point x="-26" y="620" type="curve" smooth="yes"/>
			<point x="7" y="590"/>
			<point x="26" y="580"/>
			<point x="53" y="580" type="curve" smooth="yes"/>
			<point x="105" y="580"/>
			<point x="155" y="626"/>
			<point x="184" y="702" type="curve"/>
			<point x="108" y="749" type="line"/>
			<point x="92" y="706"/>
			<point x="80" y="689"/>
			<point x="66" y="689" type="curve" smooth="yes"/>
			<point x="59" y="689"/>
			<point x="54" y="692"/>
		</contour>
	</outline>
	<anchor name="_top.LC" x="0" y="544"/>
</glyph>
<glyph name="zero.percent" format="2">
	<advance width="363"/>
	<outline>
		<contour>
			<point x="107" y="152" type="curve" smooth="yes"/>
			<point x="107" y="188"/>
			<point x="134" y="221"/>
			<point x="169" y="221" type="curve" smooth="yes"/>
			<point x="197" y="221"/>
			<point x="216" y="201"/>
			<point x="216" y="170" type="curve" smooth="yes"/>
			<point x="216" y="134"/>
			<point x="189" y="101"/>
			<point x="154" y="101" type="curve" smooth="yes"/>
			<point x="126" y="101"/>
			<point x="107" y="121"/>
		</contour>
		<contour>
			<point x="-9" y="134" type="curve" smooth="yes"/>
			<point x="-9" y="44"/>
			<point x="61" y="-14"/>
			<point x="140" y="-14" type="curve" smooth="yes"/>
			<point x="252" y="-14"/>
			<point x="332" y="88"/>
			<point x="332" y="188" type="curve" smooth="yes"/>
			<point x="332" y="278"/>
			<point x="262" y="336"/>
			<point x="183" y="336" type="curve" smooth="yes"/>
			<point x="71" y="336"/>
			<point x="-9" y="234"/>
		</contour>
	</outline>
	<guideline y="-14"/>
	<guideline y="101"/>
	<guideline y="221"/>
</glyph>
